# BrainViewer — regione: brainstem
# generato da tools/split_lobes.py, non modificare a mano
o brainstem
v -0.012482 0.203140 -0.168309
v -0.012482 0.192856 -0.184175
v -0.012482 0.387054 0.040520
v -0.012482 0.475388 0.137903
v -0.012482 0.483170 0.152765
v -0.012482 0.533798 -0.096337
v -0.012482 0.522308 -0.114043
v -0.012482 0.545441 -0.058864
v -0.012482 0.580139 -0.088593
v -0.012482 0.456665 -0.082165
v -0.012482 0.529404 -0.044867
v -0.012482 0.026535 -0.232650
v -0.012482 0.014664 -0.176023
v -0.012482 0.439972 -0.116302
v -0.012482 0.424469 -0.115218
v -0.012482 0.579147 -0.001361
v -0.012482 0.489182 0.073344
v -0.012482 0.432175 -0.016627
v -0.012482 0.206955 -0.165316
v -0.012482 0.634979 0.187307
v -0.012482 0.666336 0.137112
v -0.012482 0.607559 0.070150
v -0.012482 0.689621 0.097327
v -0.012482 0.559799 -0.106129
v -0.012482 0.407272 0.027411
v -0.012482 0.460892 -0.122792
v -0.012482 0.537277 -0.101944
v -0.012482 0.428955 0.182791
v -0.012482 0.496582 0.007122
v -0.012482 0.644913 0.058451
v -0.012482 0.696777 0.074969
v -0.012482 0.707169 0.017962
v -0.012482 0.461884 0.119977
v -0.012482 0.423752 0.166477
v -0.012482 0.502747 -0.124828
v -0.012482 0.494064 0.048796
v -0.012482 0.496216 0.046573
v -0.012482 0.309601 -0.128778
v -0.012482 0.264221 -0.140579
v -0.012482 0.156174 -0.196333
v -0.012482 0.132507 -0.105371
v -0.012482 0.196259 -0.056841
v -0.012482 0.085968 -0.132713
v -0.012482 0.043625 -0.159164
v -0.012482 0.214005 -0.047087
v -0.012482 0.276535 0.016974
v -0.012482 0.313980 0.035885
v -0.012482 0.352646 0.048462
v -0.012482 0.526413 0.133554
v -0.012482 0.366196 -0.113643
v -0.012482 0.329559 -0.120149
v -0.012482 0.465988 -0.095503
v -0.012482 0.500900 0.099656
v -0.012482 0.523193 0.056460
v -0.012482 0.450607 0.194046
v -0.012482 0.488922 0.167155
v -0.012482 0.496140 0.050698
v -0.012482 0.494186 0.060638
v -0.012482 0.428955 -0.015848
v -0.012482 0.606613 0.146235
v -0.012482 0.597122 0.128863
v -0.012482 0.665909 0.082501
v -0.012482 0.642334 0.132045
v -0.012482 0.693192 -0.036157
v -0.012482 0.681702 0.018163
v -0.012482 0.597168 0.172125
v -0.012482 0.573578 0.045446
v -0.012482 0.656769 0.012886
v -0.012482 0.064865 -0.217965
v -0.012482 0.107712 -0.204496
v -0.012482 0.217072 -0.044403
v -0.012482 0.244598 -0.007292
v -0.012482 0.538544 -0.005741
v -0.012482 0.459122 -0.080431
v -0.012482 0.419983 -0.095414
v -0.012482 0.587601 0.122452
v -0.012482 0.563721 0.152573
v -0.012482 0.494415 0.161576
v -0.012482 0.566223 0.131080
v -0.012482 0.526611 0.153152
v -0.054153 0.213745 -0.188136
v -0.054733 0.414108 0.041492
v -0.050903 0.391022 0.054708
v -0.031570 0.491882 0.132805
v -0.035889 0.515259 0.105083
v -0.033463 0.525146 0.120226
v -0.088409 0.472839 -0.132629
v -0.056396 0.483002 -0.141684
v -0.037262 0.482758 -0.141921
v -0.045090 0.574966 -0.010926
v -0.038925 0.547623 -0.005895
v -0.037399 0.540527 -0.044543
v -0.038483 0.530563 -0.120815
v -0.035553 0.459320 -0.080542
v -0.040497 0.534622 -0.044779
v -0.093323 0.169006 -0.104222
v -0.092636 0.206100 -0.088595
v -0.102203 0.207077 -0.101788
v -0.100937 0.165176 -0.132870
v -0.101288 0.201782 -0.127067
v -0.122574 0.154297 -0.139044
v -0.070816 0.130600 -0.121277
v -0.075272 0.131638 -0.106186
v -0.096695 0.133331 -0.093572
v -0.091370 0.278793 0.011600
v -0.089935 0.244797 -0.013099
v -0.077164 0.241165 -0.007463
v -0.124359 0.351059 0.022924
v -0.104919 0.351364 0.040248
v -0.111008 0.382889 0.036107
v -0.138580 0.290787 -0.031281
v -0.150391 0.299393 -0.043484
v -0.156067 0.290543 -0.059529
v -0.139908 0.364990 -0.041586
v -0.139633 0.338409 -0.027539
v -0.135757 0.334259 -0.014666
v -0.081619 0.133850 -0.149817
v -0.072739 0.134933 -0.185949
v -0.069717 0.106598 -0.195605
v -0.077133 0.103851 -0.182397
v -0.073502 0.138702 -0.184947
v -0.076874 0.232330 -0.171503
v -0.047760 0.234451 -0.171661
v -0.104202 0.381927 -0.103804
v -0.087738 0.372147 -0.141019
v -0.090683 0.317535 -0.150386
v -0.136185 0.462891 -0.020771
v -0.115616 0.456604 -0.074728
v -0.121964 0.451523 -0.060452
v -0.125931 0.475830 -0.061408
v -0.129715 0.480560 -0.059611
v -0.142868 0.487808 -0.065672
v -0.130585 0.483139 -0.106055
v -0.147079 0.499329 -0.078388
v -0.119690 0.503036 -0.108452
v -0.163528 0.541260 -0.069301
v -0.178452 0.517349 -0.048127
v -0.180298 0.543747 -0.049019
v -0.074478 0.484711 0.118538
v -0.102081 0.508301 0.102001
v -0.095963 0.496979 0.093001
v -0.067566 0.506546 0.138420
v -0.080292 0.525772 0.120807
v -0.095337 0.531128 0.106796
v -0.089554 0.425705 0.171598
v -0.087204 0.431381 0.185931
v -0.091110 0.450607 0.187829
v -0.124115 0.435883 -0.048466
v -0.126495 0.433670 -0.068593
v -0.076950 0.377350 -0.135631
v -0.049225 0.370667 -0.126408
v -0.054428 0.308594 -0.141724
v -0.044266 0.189880 -0.055821
v -0.034729 0.209244 -0.043800
v -0.058899 0.201904 -0.049672
v -0.098267 0.469238 -0.133862
v -0.087921 0.501617 -0.124354
v -0.073929 0.426498 -0.120809
v -0.089447 0.391251 0.046446
v -0.074966 0.350433 0.052910
v -0.078690 0.391403 0.055054
v -0.052048 0.466690 0.057772
v -0.073334 0.466080 0.062229
v -0.061005 0.435089 0.053276
v -0.042007 0.465881 0.009468
v -0.031067 0.462555 0.034863
v -0.033127 0.484116 0.015499
v -0.068268 0.534698 -0.117498
v -0.055939 0.509201 -0.131726
v -0.113831 0.446747 -0.089905
v -0.084671 0.425491 -0.125306
v -0.141739 0.503784 0.030653
v -0.141235 0.504272 0.034575
v -0.151978 0.507187 0.038998
v -0.074539 0.497543 0.068797
v -0.040192 0.487045 0.068424
v -0.123566 0.533646 -0.108427
v -0.104233 0.536255 -0.101526
v -0.125397 0.535492 0.088424
v -0.160080 0.532791 0.042294
v -0.168640 0.532898 0.042399
v -0.119797 0.241379 -0.133296
v -0.104568 0.234055 -0.146205
v -0.117126 0.278946 -0.007799
v -0.132950 0.294785 -0.015729
v -0.078049 0.100220 -0.183291
v -0.070084 0.103653 -0.197742
v -0.096481 0.082260 -0.191759
v -0.033737 0.452576 0.000022
v -0.044327 0.437790 -0.000793
v -0.088165 0.498093 0.066998
v -0.086060 0.499756 0.068558
v -0.088394 0.499893 0.069375
v -0.139023 0.501648 0.033576
v -0.055557 0.417618 0.041586
v -0.052963 0.415359 0.039602
v -0.099899 0.409256 0.036014
v -0.100311 0.413055 0.036341
v -0.070953 0.060013 -0.215620
v -0.067337 0.061310 -0.216821
v -0.066544 0.105103 -0.198922
v -0.070694 0.140564 -0.187469
v -0.090973 0.190323 -0.163494
v -0.093735 0.187927 -0.161510
v -0.092270 0.192795 -0.161933
v -0.068359 0.045212 -0.175034
v -0.065399 0.044556 -0.172386
v -0.062073 0.005783 -0.193483
v -0.064301 0.006805 -0.196630
v -0.065216 0.087067 -0.148821
v -0.062317 0.086960 -0.145999
v -0.064102 0.089386 -0.146251
v -0.072037 0.102921 -0.171532
v -0.073944 0.104004 -0.175273
v -0.073669 0.100342 -0.174573
v -0.077347 0.131287 -0.148947
v -0.079468 0.131622 -0.152308
v -0.092636 0.164047 -0.106645
v -0.093170 0.163269 -0.102839
v -0.070023 0.130569 -0.124846
v -0.069107 0.128250 -0.124056
v -0.092072 0.204315 -0.085746
v -0.089859 0.208755 -0.085884
v -0.082657 0.203384 -0.065290
v -0.084183 0.200089 -0.066704
v -0.080673 0.200821 -0.065520
v -0.084503 0.222839 -0.080597
v -0.083130 0.220032 -0.081704
v -0.094315 0.224747 -0.102056
v -0.095001 0.227036 -0.100010
v -0.095764 0.221039 -0.132012
v -0.094742 0.218567 -0.129216
v -0.046402 0.238022 -0.169351
v -0.088501 0.600937 0.239498
v -0.100906 0.594299 0.281855
v -0.092972 0.574554 0.251365
v -0.054825 0.661774 0.134563
v -0.110519 0.703934 -0.071089
v -0.094528 0.696686 -0.078895
v -0.121231 0.689148 -0.098893
v -0.111221 0.761856 0.129965
v -0.110855 0.759384 0.162176
v -0.114792 0.745941 0.205154
v -0.125366 0.693481 0.268329
v -0.125519 0.668655 0.282634
v -0.106903 0.653763 0.248775
v -0.047501 0.622772 0.082204
v -0.043793 0.590988 0.077633
v -0.060165 0.627823 -0.084596
v -0.082260 0.603043 -0.120254
v -0.090912 0.602432 -0.126831
v -0.095612 0.577911 -0.134244
v -0.084976 0.564224 -0.121963
v -0.123627 0.554474 -0.134583
v -0.082489 0.552032 -0.085312
v -0.162552 0.648514 -0.122931
v -0.158264 0.674057 -0.130608
v -0.133163 0.669479 -0.124483
v -0.045517 0.711929 0.020698
v -0.038315 0.701706 0.058734
v -0.036423 0.658173 0.078724
v -0.034103 0.636353 0.119941
v -0.036789 0.621292 0.088401
v -0.174881 0.528549 -0.111257
v -0.140427 0.529892 -0.089473
v -0.170715 0.539597 -0.132917
v -0.209000 0.538315 -0.124057
v -0.191864 0.561325 -0.141148
v -0.172379 0.583267 -0.143278
v -0.205734 0.540527 -0.032014
v -0.186157 0.540726 -0.003715
v -0.224304 0.513962 0.217895
v -0.180023 0.505402 0.182909
v -0.181641 0.515457 0.217803
v -0.229965 0.537430 0.251304
v -0.239212 0.512466 0.215570
v -0.237274 0.604630 0.274452
v -0.241959 0.580078 0.267121
v -0.211746 0.595322 0.285285
v -0.228333 0.636673 0.276810
v -0.252075 0.627090 0.261933
v -0.263840 0.561813 0.241614
v -0.270996 0.533905 0.209527
v -0.258820 0.518646 0.177804
v -0.272018 0.589996 0.243310
v -0.295074 0.624680 0.235624
v -0.287476 0.570740 0.221916
v -0.268188 0.571747 0.226243
v -0.240128 0.499039 0.155921
v -0.291382 0.512451 0.137440
v -0.289551 0.498245 0.132250
v -0.262695 0.715668 -0.175311
v -0.280624 0.669281 -0.191548
v -0.301025 0.688599 -0.137056
v -0.235733 0.769043 0.054061
v -0.248840 0.748795 0.047728
v -0.244400 0.751862 0.063636
v -0.202637 0.783203 0.128773
v -0.207352 0.789993 0.086611
v -0.218124 0.778824 0.088717
v -0.193481 0.750290 0.211215
v -0.193741 0.764496 0.174975
v -0.206726 0.733887 0.196934
v -0.158783 0.750061 0.261019
v -0.158798 0.778458 0.229944
v -0.169525 0.777435 0.225447
v -0.229080 0.700058 -0.196404
v -0.190552 0.709976 -0.194661
v -0.210068 0.679230 -0.192258
v -0.307541 0.662155 0.049435
v -0.305267 0.692047 0.031801
v -0.305527 0.680893 0.022899
v -0.302109 0.671631 0.013402
v -0.283859 0.626083 0.031713
v -0.299408 0.644211 0.041236
v -0.324585 0.595123 0.028627
v -0.336761 0.572601 0.021961
v -0.327835 0.573700 0.056996
v -0.317871 0.635818 -0.056864
v -0.310059 0.610443 -0.047696
v -0.319519 0.632294 -0.024441
v -0.307755 0.686508 0.006674
v -0.309814 0.700806 0.000971
v -0.318893 0.674881 -0.019758
v -0.306946 0.684433 -0.096381
v -0.298264 0.701065 -0.103835
v -0.309341 0.685165 -0.120263
v -0.318512 0.634521 -0.060619
v -0.317535 0.637070 -0.059568
v -0.313263 0.668777 -0.073448
v -0.310730 0.636475 -0.003957
v -0.312531 0.652817 0.001689
v -0.211151 0.751465 0.165748
v -0.226334 0.733383 0.159894
v -0.224121 0.714142 0.188515
v -0.278503 0.677017 0.141860
v -0.264206 0.677277 0.168283
v -0.261597 0.680038 0.169074
v -0.234573 0.694473 0.172057
v -0.248047 0.703110 0.160186
v -0.273880 0.655457 0.191789
v -0.294830 0.640717 0.180069
v -0.272247 0.647598 0.195373
v -0.273315 0.645721 0.197746
v -0.297470 0.638351 0.181423
v -0.282394 0.645691 0.207238
v -0.232834 0.658600 0.220975
v -0.234848 0.680756 0.217856
v -0.243546 0.673981 0.215036
v -0.300629 0.635651 0.178518
v -0.312744 0.610718 0.200078
v -0.300064 0.635880 0.175564
v -0.302719 0.613281 0.145963
v -0.300812 0.586807 0.157750
v -0.248291 0.728363 0.113233
v -0.259201 0.717361 0.104380
v -0.265610 0.702133 0.125259
v -0.305252 0.652161 0.075727
v -0.304947 0.645523 0.107048
v -0.300262 0.676041 0.106885
v -0.277252 0.604279 0.125668
v -0.294510 0.619385 0.116592
v -0.285446 0.610947 0.101994
v -0.322403 0.598663 0.029521
v -0.323318 0.596909 0.031250
v -0.318893 0.596100 0.063919
v -0.179657 0.718475 -0.184190
v -0.168045 0.750824 -0.142526
v -0.150177 0.771378 -0.096812
v -0.147598 0.518417 0.122526
v -0.148834 0.515549 0.123108
v -0.151215 0.495850 0.112969
v -0.034851 0.675644 0.016948
v -0.049500 0.649689 0.068362
v -0.037140 0.595367 0.087183
v -0.036087 0.539642 0.062241
v -0.101135 0.731781 0.116847
v -0.112000 0.764740 0.065105
v -0.292831 0.543213 0.157154
v -0.248489 0.519394 0.153614
v -0.275024 0.556000 0.154332
v -0.032639 0.603058 -0.072689
v -0.033783 0.644913 -0.033259
v -0.259628 0.678574 0.172509
v -0.245010 0.683823 0.182250
v -0.234558 0.692413 0.174364
v -0.232452 0.695160 0.174484
v -0.231583 0.657715 0.223987
v -0.259598 0.710266 0.080783
v -0.259186 0.711594 0.078061
v -0.261703 0.709930 0.078846
v -0.277023 0.604538 0.127459
v -0.284668 0.623840 0.030453
v -0.284164 0.625488 0.029166
v -0.306931 0.623978 -0.002778
v -0.305511 0.626358 -0.003141
v -0.302521 0.668335 0.010769
v -0.302231 0.671951 0.011202
v -0.302094 0.675629 -0.079753
v -0.301544 0.676865 -0.082563
v -0.245346 0.517212 0.155195
v -0.244995 0.516251 0.153260
v -0.186813 0.506104 0.149766
v -0.024704 0.440826 0.139755
v -0.028046 0.438080 0.142872
v -0.040970 0.508560 -0.129856
v -0.042450 0.079117 -0.129616
v -0.047729 0.131073 -0.096671
v -0.071411 0.130798 -0.106381
v -0.094269 0.075821 -0.182237
v -0.077866 0.124649 -0.158802
v -0.091293 0.127029 -0.166976
v -0.083694 0.214798 -0.060884
v -0.105789 0.231491 -0.072579
v -0.137222 0.381836 -0.018433
v -0.132889 0.378677 -0.003852
v -0.122299 0.408691 0.008592
v -0.161514 0.309631 -0.020297
v -0.159073 0.307098 -0.016258
v -0.156860 0.308273 -0.012135
v -0.111450 0.249512 -0.033714
v -0.107605 0.236359 -0.054084
v -0.112366 0.230042 -0.085887
v -0.089691 0.223145 -0.157733
v -0.121658 0.410858 0.007281
v -0.122101 0.412476 0.010063
v -0.135452 0.469437 0.030801
v -0.145859 0.494858 -0.015145
v -0.135895 0.485596 -0.043062
v -0.015762 0.385605 0.128007
v -0.015762 0.383621 0.137288
v -0.024963 0.383713 0.136964
v -0.057281 0.433044 0.185997
v -0.050964 0.019501 -0.238301
v -0.043991 0.000595 -0.170382
v -0.065704 0.015228 -0.228164
v -0.064056 0.016388 -0.231109
v -0.046631 0.024063 -0.239518
v -0.030792 0.467743 0.051259
v -0.077255 0.535767 0.186241
v -0.064590 0.543335 0.170286
v -0.060638 0.590546 0.184321
v -0.116638 0.558914 0.254795
v -0.206619 0.532089 -0.094899
v -0.231888 0.532608 -0.074866
v -0.252792 0.546463 -0.056423
v -0.257385 0.547653 -0.082334
v -0.181381 0.515625 0.062902
v -0.172791 0.501892 0.086105
v -0.174835 0.500595 0.092380
v -0.147934 0.516632 0.126036
v -0.146591 0.517838 0.124415
v -0.116470 0.524460 0.129642
v -0.185867 0.506912 0.152399
v -0.178238 0.498062 0.166032
v -0.313065 0.512253 0.109249
v -0.297501 0.526245 0.144822
v -0.316803 0.548203 0.114795
v -0.319092 0.532730 0.115903
v -0.262695 0.757599 -0.044102
v -0.255646 0.759445 0.008556
v -0.242630 0.778152 0.001503
v -0.299805 0.636093 0.017683
v -0.308136 0.658554 0.005018
v -0.311386 0.671036 -0.094808
v -0.315887 0.663773 -0.111608
v -0.306076 0.695816 -0.037251
v -0.239502 0.721161 0.146503
v -0.263901 0.675888 0.171527
v -0.228180 0.692413 0.229729
v -0.228363 0.701904 0.205629
v -0.300125 0.695358 0.097936
v -0.295944 0.703033 0.082086
v -0.058563 0.533066 0.146216
v -0.071487 0.529510 0.143347
v -0.205780 0.660034 -0.163646
v -0.161728 0.749115 -0.145097
v -0.196503 0.551224 0.009531
v -0.264252 0.675598 0.169488
v -0.015762 0.441101 0.138642
v -0.024796 0.431442 0.150712
v -0.015762 0.430466 0.150869
v -0.087479 0.446060 0.147553
v -0.029434 0.434204 0.146632
v -0.028107 0.433029 0.148687
v -0.051041 0.264435 -0.159926
v -0.050858 0.153732 -0.203184
v -0.043320 0.033844 -0.152395
v -0.060013 0.244232 -0.002591
v -0.058975 0.205200 -0.046761
v -0.035767 0.212097 -0.040924
v -0.045166 0.237366 -0.002049
v -0.043625 0.310364 0.044075
v -0.050461 0.286758 0.032495
v -0.071350 0.311615 0.040226
v -0.057129 0.276581 0.019479
v -0.049286 0.350815 0.059277
v -0.030853 0.464066 -0.126369
v -0.046906 0.368881 -0.120666
v -0.049850 0.338791 -0.130488
v -0.056839 0.554108 -0.076353
v -0.032089 0.420547 -0.101270
v -0.074982 0.163742 -0.084310
v -0.096863 0.054276 -0.193332
v -0.093063 0.036484 -0.212455
v -0.093018 0.032562 -0.204524
v -0.100601 0.203934 -0.124519
v -0.083984 0.207550 -0.081356
v -0.100021 0.185867 -0.073586
v -0.106903 0.154678 -0.080162
v -0.069824 0.212265 -0.049356
v -0.082748 0.211273 -0.081840
v -0.082504 0.211502 -0.062112
v -0.094864 0.314148 0.030076
v -0.120728 0.311783 0.012378
v -0.120880 0.408569 0.011258
v -0.129593 0.309570 -0.006515
v -0.128586 0.257477 -0.049382
v -0.120422 0.244522 -0.060900
v -0.149506 0.259186 -0.075551
v -0.151398 0.349823 -0.061271
v -0.157669 0.321838 -0.052841
v -0.155273 0.317032 -0.045670
v -0.146652 0.333374 -0.039093
v -0.122055 0.416901 -0.030704
v -0.124832 0.392593 -0.059915
v -0.080994 0.254410 -0.161776
v -0.110123 0.258789 -0.149343
v -0.110840 0.315979 -0.141239
v -0.162460 0.314468 -0.021378
v -0.156036 0.316055 -0.009714
v -0.157516 0.319626 -0.011908
v -0.129318 0.239975 -0.090141
v -0.116501 0.235443 -0.080314
v -0.095261 0.216492 -0.133026
v -0.124924 0.363892 -0.109177
v -0.077454 0.236282 -0.169636
v -0.091003 0.227097 -0.156779
v -0.045883 0.066498 -0.223959
v -0.043060 0.106827 -0.208863
v -0.105438 0.427765 -0.083117
v -0.184387 0.519852 -0.008178
v -0.163818 0.499588 -0.047665
v -0.173935 0.504669 -0.009364
v -0.116486 0.504654 0.061687
v -0.121704 0.506378 0.071275
v -0.125748 0.518021 0.078176
v -0.055603 0.492706 0.089554
v -0.162430 0.519379 0.043840
v -0.093445 0.218689 -0.136058
v -0.109604 0.467010 0.060541
v -0.078873 0.416077 0.041162
v -0.059067 0.451431 0.192079
v -0.050446 0.487549 0.164800
v -0.084778 0.468399 0.165432
v -0.074036 0.485962 0.153777
v -0.115494 0.502151 0.059571
v -0.046570 0.267166 0.021757
v -0.096939 0.058548 -0.203335
v -0.133179 0.321594 -0.005590
v -0.137863 0.309631 -0.004233
v -0.141434 0.296219 -0.012277
v -0.138870 0.320679 -0.004649
v -0.143539 0.331970 -0.011559
v -0.149536 0.335541 -0.021808
v -0.155289 0.330963 -0.032655
v -0.158905 0.316528 -0.040914
v -0.161423 0.304916 -0.027596
v -0.163239 0.315430 -0.029513
v -0.156143 0.300461 -0.037998
v -0.149475 0.310928 -0.005505
v -0.151794 0.302155 -0.010767
v -0.150131 0.318146 -0.005776
v -0.153183 0.325531 -0.010298
v -0.157104 0.327881 -0.017003
v -0.159424 0.320755 -0.015160
v -0.160934 0.324600 -0.024261
v -0.161331 0.318985 -0.018780
v -0.156387 0.299683 -0.019270
v -0.139786 0.245621 -0.095347
v -0.140320 0.373001 -0.079262
v -0.041183 0.484253 0.065593
v -0.137878 0.488098 -0.045023
v -0.078568 0.412415 0.041451
v -0.043015 0.434097 -0.000441
v -0.067871 0.016006 -0.229424
v -0.078934 0.163300 -0.084695
v -0.069519 0.209412 -0.052494
v -0.032700 0.592575 0.110603
v -0.035187 0.559097 0.114413
v -0.056152 0.603821 -0.074535
v -0.139877 0.731369 -0.083596
v -0.153305 0.715256 -0.119648
v -0.124725 0.800858 0.029268
v -0.112427 0.766037 0.028265
v -0.121597 0.761719 -0.022748
v -0.134125 0.791672 -0.029401
v -0.121368 0.798355 0.133452
v -0.124176 0.802872 0.071110
v -0.120514 0.773758 0.228578
v -0.118790 0.789444 0.175186
v -0.128967 0.717087 0.290833
v -0.116943 0.713394 0.235365
v -0.126785 0.751694 0.261060
v -0.127106 0.680023 0.311279
v -0.113403 0.622604 0.272709
v -0.104996 0.601395 0.289937
v -0.083084 0.551834 0.213693
v -0.067581 0.606110 0.203296
v -0.110962 0.536697 0.215119
v -0.103165 0.517761 0.180420
v -0.075577 0.522614 0.165980
v -0.058105 0.554199 0.159394
v -0.051193 0.586945 0.174297
v -0.064575 0.704147 0.062143
v -0.057114 0.683716 0.103992
v -0.144653 0.693466 -0.109092
v -0.117905 0.721939 -0.020344
v -0.099625 0.723160 0.028564
v -0.098419 0.677841 0.216702
v -0.096390 0.713043 0.173997
v -0.121582 0.639725 0.285201
v -0.082413 0.672302 0.138973
v -0.082153 0.646591 0.188064
v -0.086288 0.626633 0.220974
v -0.132187 0.711014 -0.075532
v -0.170975 0.693283 -0.148219
v -0.091171 0.716324 0.065103
v -0.073334 0.713333 0.023361
v -0.086823 0.694931 0.104568
v -0.078583 0.620148 0.158337
v -0.076065 0.584518 -0.115494
v -0.146439 0.606277 -0.140777
v -0.118942 0.593430 -0.143776
v -0.129868 0.574341 -0.145589
v -0.103134 0.635925 -0.119580
v -0.208237 0.606201 -0.135817
v -0.182312 0.629211 -0.133398
v -0.195068 0.647537 -0.146817
v -0.068436 0.649673 -0.084246
v -0.042007 0.664612 -0.033281
v -0.083115 0.715973 -0.021961
v -0.064178 0.712814 -0.025164
v -0.034500 0.605789 0.119968
v -0.032074 0.618164 0.133492
v -0.234055 0.585968 -0.131198
v -0.045990 0.514481 0.150814
v -0.249039 0.564621 -0.111541
v -0.246811 0.597610 -0.143807
v -0.220963 0.622391 -0.149692
v -0.276596 0.550934 -0.085834
v -0.270401 0.571747 -0.122963
v -0.263489 0.539032 -0.051371
v -0.215744 0.534943 0.025840
v -0.245911 0.535294 -0.004302
v -0.228790 0.552780 -0.016036
v -0.147186 0.504059 0.084087
v -0.243378 0.522583 0.045299
v -0.215271 0.515823 0.085097
v -0.283371 0.570831 -0.138247
v -0.302322 0.548416 -0.092655
v -0.319550 0.541595 -0.100473
v -0.302765 0.569565 -0.151476
v -0.295441 0.535995 -0.045181
v -0.316864 0.527542 -0.044626
v -0.277954 0.528595 -0.001122
v -0.310089 0.513062 0.002495
v -0.193893 0.491791 0.114662
v -0.228058 0.488495 0.112139
v -0.258072 0.489502 0.099495
v -0.298584 0.488342 0.097487
v -0.275314 0.491150 0.082564
v -0.279221 0.485794 0.118585
v -0.311661 0.493835 0.072575
v -0.288284 0.496185 0.059788
v -0.340973 0.538574 -0.105292
v -0.340469 0.519028 -0.043979
v -0.300522 0.610123 -0.188663
v -0.277115 0.601807 -0.181978
v -0.321945 0.573715 -0.159087
v -0.261780 0.654587 -0.205773
v -0.244781 0.641281 -0.195708
v -0.332169 0.589493 -0.140422
v -0.310852 0.625671 -0.178719
v -0.333603 0.507858 0.008142
v -0.343811 0.534653 0.016095
v -0.348465 0.544907 -0.031861
v -0.326050 0.520233 0.082716
v -0.187164 0.488434 0.140092
v -0.299194 0.504669 0.031109
v -0.135925 0.530045 0.104807
v -0.075638 0.523972 0.159651
v -0.103455 0.513016 0.161968
v -0.135269 0.515411 0.173696
v -0.135574 0.502563 0.162283
v -0.143051 0.528381 0.215806
v -0.126434 0.590363 0.292175
v -0.154343 0.581619 0.284053
v -0.146576 0.548431 0.255083
v -0.138443 0.627533 0.313268
v -0.168610 0.617569 0.300525
v -0.148453 0.675232 0.314846
v -0.185028 0.660370 0.305501
v -0.196594 0.604645 0.291512
v -0.180115 0.571533 0.282152
v -0.193619 0.537735 0.257638
v -0.192963 0.568405 0.277226
v -0.290390 0.552124 0.176472
v -0.287598 0.583328 0.145148
v -0.334442 0.559158 0.053966
v -0.327866 0.546188 0.083879
v -0.323303 0.562332 0.089510
v -0.341583 0.576096 -0.025284
v -0.335495 0.590759 -0.063724
v -0.346497 0.575928 -0.075458
v -0.348190 0.561646 -0.028297
v -0.348862 0.565247 -0.086473
v -0.326904 0.621078 -0.094386
v -0.316254 0.654846 -0.130951
v -0.227615 0.790146 -0.004766
v -0.247696 0.770050 -0.052508
v -0.214188 0.791824 0.047794
v -0.183029 0.810913 0.130189
v -0.192139 0.811981 0.084616
v -0.217789 0.765854 0.129604
v -0.231033 0.762680 0.094168
v -0.178284 0.795959 0.190204
v -0.158783 0.721680 0.292095
v -0.191193 0.706406 0.273859
v -0.156921 0.800217 0.188758
v -0.163895 0.810669 0.129951
v -0.162262 0.814606 0.080506
v -0.162766 0.817245 0.037418
v -0.192581 0.816284 0.044119
v -0.172150 0.807587 -0.019114
v -0.206131 0.808746 -0.011925
v -0.199783 0.762909 -0.135263
v -0.186020 0.787201 -0.086570
v -0.219788 0.734344 -0.173894
v -0.251450 0.742096 -0.156646
v -0.235748 0.768127 -0.116362
v -0.219971 0.791672 -0.074378
v -0.231735 0.630722 -0.167493
v -0.234161 0.485306 0.137727
v -0.281265 0.717041 0.045660
v -0.278809 0.712067 0.079464
v -0.262054 0.717209 0.043493
v -0.294250 0.709381 0.041918
v -0.296967 0.632904 0.073693
v -0.315247 0.592163 -0.015985
v -0.310547 0.615585 0.033011
v -0.317352 0.619461 -0.005368
v -0.262131 0.747772 0.012664
v -0.259674 0.736023 0.047259
v -0.277328 0.725784 0.014742
v -0.264313 0.729950 0.011694
v -0.292282 0.719650 0.013580
v -0.313538 0.595337 -0.014989
v -0.273392 0.747223 -0.035294
v -0.273422 0.742004 -0.033281
v -0.262238 0.732590 0.011854
v -0.284103 0.734726 -0.026939
v -0.275146 0.739197 -0.031636
v -0.294708 0.725006 -0.011465
v -0.286865 0.726883 -0.072238
v -0.297516 0.712616 -0.055581
v -0.292084 0.696869 -0.047600
v -0.293045 0.695389 -0.045094
v -0.276154 0.742416 -0.084331
v -0.255264 0.728500 0.071826
v -0.244385 0.734955 0.100061
v -0.244034 0.743881 0.101204
v -0.245453 0.731979 0.102456
v -0.226288 0.741623 0.131058
v -0.224274 0.754181 0.133712
v -0.226395 0.721619 0.152170
v -0.228394 0.738510 0.130785
v -0.237335 0.733032 0.131570
v -0.224274 0.723145 0.154562
v -0.245560 0.657806 0.240054
v -0.215118 0.684418 0.256343
v -0.232513 0.673859 0.245497
v -0.210938 0.704208 0.234311
v -0.265869 0.693100 0.113794
v -0.282928 0.697083 0.109056
v -0.267883 0.692413 0.111787
v -0.289429 0.677399 0.120221
v -0.280899 0.669510 0.126318
v -0.288330 0.582596 0.143232
v -0.303223 0.590897 0.128139
v -0.303299 0.572739 0.141717
v -0.279602 0.669998 0.129045
v -0.291946 0.618408 0.068391
v -0.292877 0.615967 0.067899
v -0.286118 0.608704 0.101692
v -0.311020 0.607971 -0.050036
v -0.015762 0.423096 0.131270
v -0.024902 0.422882 0.132397
v -0.029602 0.421646 0.138318
v -0.028259 0.421173 0.140522
v -0.029678 0.414856 0.135084
v -0.028336 0.414383 0.137289
v -0.015762 0.420578 0.143121
v -0.015762 0.413788 0.139887
v -0.015762 0.416077 0.129020
v -0.025253 0.415863 0.130179
v -0.028244 0.422272 0.135333
v -0.028320 0.415283 0.133085
v -0.015762 0.397827 0.126160
v -0.025085 0.397614 0.127288
v -0.028427 0.397217 0.129236
v -0.025024 0.413895 0.139543
v -0.028442 0.396332 0.133440
v -0.025131 0.395828 0.135694
v -0.015762 0.395737 0.136039
v -0.024918 0.385391 0.129066
v -0.028061 0.385025 0.130897
v -0.029785 0.396805 0.131236
v -0.029327 0.384628 0.132775
v -0.028076 0.384186 0.134846
v -0.093277 0.018921 -0.211808
v -0.091217 0.018539 -0.220675
v -0.098358 0.165527 -0.130430
v -0.117035 0.230515 -0.118482
v -0.115738 0.428375 -0.054529
v -0.155716 0.312546 -0.009583
v -0.148392 0.497467 -0.015999
v -0.074554 0.463608 0.135871
v -0.095978 0.432632 0.160073
v -0.099823 0.453812 0.173385
v -0.148453 0.292465 -0.025271
v -0.114975 0.637268 0.306439
v -0.094467 0.656418 -0.124000
v -0.059845 0.675858 -0.085103
v -0.257629 0.603790 -0.162064
v -0.324722 0.500656 0.041412
v -0.337006 0.527023 0.051528
v -0.341248 0.557159 0.023097
v -0.326675 0.627228 -0.082164
v -0.285553 0.713272 -0.121036
v -0.189163 0.727646 0.245622
v -0.200058 0.716202 0.238906
v -0.202103 0.695389 0.265088
v -0.259933 0.719269 0.043695
v -0.232147 0.683167 0.220263
v -0.305618 0.606842 0.094435
v -0.318695 0.583145 0.093894
v -0.318466 0.577835 0.118885
v -0.303696 0.612579 0.067280
v -0.024948 0.420685 0.142776
v -0.115097 0.439758 -0.095558
v -0.012482 0.701889 0.052490
v -0.031738 0.687698 0.099402
v -0.031830 0.669769 0.129189
v -0.012482 0.483170 0.152765
v -0.012482 0.456665 -0.082165
v -0.012482 0.459122 -0.080431
v 0.029205 0.213745 -0.188136
v 0.029785 0.414108 0.041492
v 0.025955 0.391022 0.054708
v 0.006622 0.491882 0.132805
v 0.010925 0.515259 0.105083
v 0.008514 0.525146 0.120226
v 0.063461 0.472839 -0.132629
v 0.031448 0.483002 -0.141684
v 0.012314 0.482758 -0.141921
v 0.020142 0.574966 -0.010926
v 0.013977 0.547623 -0.005895
v 0.012451 0.540527 -0.044543
v 0.013519 0.530563 -0.120815
v 0.010605 0.459320 -0.080542
v 0.015549 0.534622 -0.044779
v 0.068375 0.169006 -0.104222
v 0.067688 0.206100 -0.088595
v 0.077240 0.207077 -0.101788
v 0.075989 0.165176 -0.132870
v 0.076340 0.201782 -0.127067
v 0.097626 0.154297 -0.139044
v 0.045868 0.130600 -0.121277
v 0.050308 0.131638 -0.106186
v 0.071732 0.133331 -0.093572
v 0.066422 0.278793 0.011600
v 0.064987 0.244797 -0.013099
v 0.052200 0.241165 -0.007463
v 0.099411 0.351059 0.022924
v 0.079956 0.351364 0.040248
v 0.086060 0.382889 0.036107
v 0.113632 0.290787 -0.031281
v 0.125443 0.299393 -0.043484
v 0.131119 0.290543 -0.059529
v 0.114960 0.364990 -0.041586
v 0.114670 0.338409 -0.027539
v 0.110809 0.334259 -0.014666
v 0.056671 0.133850 -0.149817
v 0.047791 0.134933 -0.185949
v 0.044769 0.106598 -0.195605
v 0.052185 0.103851 -0.182397
v 0.048553 0.138702 -0.184947
v 0.051910 0.232330 -0.171503
v 0.022797 0.234451 -0.171661
v 0.079239 0.381927 -0.103804
v 0.062790 0.372147 -0.141019
v 0.065735 0.317535 -0.150386
v 0.111237 0.462891 -0.020771
v 0.090652 0.456604 -0.074728
v 0.097015 0.451523 -0.060452
v 0.100983 0.475830 -0.061408
v 0.104767 0.480560 -0.059611
v 0.117920 0.487808 -0.065672
v 0.105637 0.483139 -0.106055
v 0.122116 0.499329 -0.078388
v 0.094742 0.503036 -0.108452
v 0.138580 0.541260 -0.069301
v 0.153488 0.517349 -0.048127
v 0.155334 0.543747 -0.049019
v 0.049530 0.484711 0.118538
v 0.077133 0.508301 0.102001
v 0.071014 0.496979 0.093001
v 0.042618 0.506546 0.138420
v 0.055344 0.525772 0.120807
v 0.070389 0.531128 0.106796
v 0.064590 0.425705 0.171598
v 0.062241 0.431381 0.185931
v 0.066162 0.450607 0.187829
v 0.099167 0.435883 -0.048466
v 0.101547 0.433670 -0.068593
v 0.052002 0.377350 -0.135631
v 0.024261 0.370667 -0.126408
v 0.029480 0.308594 -0.141724
v 0.019318 0.189880 -0.055821
v 0.009781 0.209244 -0.043800
v 0.033951 0.201904 -0.049672
v 0.073318 0.469238 -0.133862
v 0.062973 0.501617 -0.124354
v 0.048981 0.426498 -0.120809
v 0.064499 0.391251 0.046446
v 0.050018 0.350433 0.052910
v 0.053726 0.391403 0.055054
v 0.027100 0.466690 0.057772
v 0.048370 0.466080 0.062229
v 0.036057 0.435089 0.053276
v 0.017044 0.465881 0.009468
v 0.006119 0.462555 0.034863
v 0.008163 0.484116 0.015499
v 0.043320 0.534698 -0.117498
v 0.030991 0.509201 -0.131726
v 0.088882 0.446747 -0.089905
v 0.059708 0.425491 -0.125306
v 0.116791 0.503784 0.030653
v 0.116287 0.504272 0.034575
v 0.127029 0.507187 0.038998
v 0.049591 0.497543 0.068797
v 0.015244 0.487045 0.068424
v 0.098618 0.533646 -0.108427
v 0.079269 0.536255 -0.101526
v 0.100449 0.535492 0.088424
v 0.135132 0.532791 0.042294
v 0.143692 0.532898 0.042399
v 0.094833 0.241379 -0.133296
v 0.079620 0.234055 -0.146205
v 0.092178 0.278946 -0.007799
v 0.108002 0.294785 -0.015729
v 0.053101 0.100220 -0.183291
v 0.045120 0.103653 -0.197742
v 0.071533 0.082260 -0.191759
v 0.008774 0.452576 0.000022
v 0.019379 0.437790 -0.000793
v 0.063217 0.498093 0.066998
v 0.061111 0.499756 0.068558
v 0.063446 0.499893 0.069375
v 0.114059 0.501648 0.033576
v 0.030609 0.417618 0.041586
v 0.028015 0.415359 0.039602
v 0.074951 0.409256 0.036014
v 0.075363 0.413055 0.036341
v 0.046005 0.060013 -0.215620
v 0.042389 0.061310 -0.216821
v 0.041595 0.105103 -0.198922
v 0.045731 0.140564 -0.187469
v 0.066025 0.190323 -0.163494
v 0.068787 0.187927 -0.161510
v 0.067322 0.192795 -0.161933
v 0.043411 0.045212 -0.175034
v 0.040451 0.044556 -0.172386
v 0.037109 0.005783 -0.193483
v 0.039352 0.006805 -0.196630
v 0.040253 0.087067 -0.148821
v 0.037369 0.086960 -0.145999
v 0.039154 0.089386 -0.146251
v 0.047073 0.102921 -0.171532
v 0.048996 0.104004 -0.175273
v 0.048721 0.100342 -0.174573
v 0.052399 0.131287 -0.148947
v 0.054520 0.131622 -0.152308
v 0.067688 0.164047 -0.106645
v 0.068222 0.163269 -0.102839
v 0.045074 0.130569 -0.124846
v 0.044159 0.128250 -0.124056
v 0.067123 0.204315 -0.085746
v 0.064896 0.208755 -0.085884
v 0.057709 0.203384 -0.065290
v 0.059219 0.200089 -0.066704
v 0.055725 0.200821 -0.065520
v 0.059540 0.222839 -0.080597
v 0.058167 0.220032 -0.081704
v 0.069366 0.224747 -0.102056
v 0.070038 0.227036 -0.100010
v 0.070816 0.221039 -0.132012
v 0.069794 0.218567 -0.129216
v 0.021439 0.238022 -0.169351
v 0.063538 0.600937 0.239498
v 0.075943 0.594299 0.281855
v 0.068024 0.574554 0.251365
v 0.029877 0.661774 0.134563
v 0.085571 0.703934 -0.071089
v 0.069565 0.696686 -0.078895
v 0.096283 0.689148 -0.098893
v 0.086273 0.761856 0.129965
v 0.085907 0.759384 0.162176
v 0.089844 0.745941 0.205154
v 0.100403 0.693481 0.268329
v 0.100555 0.668655 0.282634
v 0.081955 0.653763 0.248775
v 0.022552 0.622772 0.082204
v 0.018829 0.590988 0.077633
v 0.035217 0.627823 -0.084596
v 0.057297 0.603043 -0.120254
v 0.065948 0.602432 -0.126831
v 0.070648 0.577911 -0.134244
v 0.060013 0.564224 -0.121963
v 0.098663 0.554474 -0.134583
v 0.057541 0.552032 -0.085312
v 0.137604 0.648514 -0.122931
v 0.133316 0.674057 -0.130608
v 0.108215 0.669479 -0.124483
v 0.020569 0.711929 0.020698
v 0.013367 0.701706 0.058734
v 0.011475 0.658173 0.078724
v 0.009155 0.636353 0.119941
v 0.011841 0.621292 0.088401
v 0.149933 0.528549 -0.111257
v 0.115479 0.529892 -0.089473
v 0.145767 0.539597 -0.132917
v 0.184036 0.538315 -0.124057
v 0.166916 0.561325 -0.141148
v 0.147415 0.583267 -0.143278
v 0.180771 0.540527 -0.032014
v 0.161194 0.540726 -0.003715
v 0.199356 0.513962 0.217895
v 0.155075 0.505402 0.182909
v 0.156693 0.515457 0.217803
v 0.205017 0.537430 0.251304
v 0.214264 0.512466 0.215570
v 0.212326 0.604630 0.274452
v 0.217010 0.580078 0.267121
v 0.186783 0.595322 0.285285
v 0.203384 0.636673 0.276810
v 0.227112 0.627090 0.261933
v 0.238892 0.561813 0.241614
v 0.246033 0.533905 0.209527
v 0.233871 0.518646 0.177804
v 0.247055 0.589996 0.243310
v 0.270126 0.624680 0.235624
v 0.262527 0.570740 0.221916
v 0.243240 0.571747 0.226243
v 0.215179 0.499039 0.155921
v 0.266434 0.512451 0.137440
v 0.264587 0.498245 0.132250
v 0.237732 0.715668 -0.175311
v 0.255676 0.669281 -0.191548
v 0.276077 0.688599 -0.137056
v 0.210770 0.769043 0.054061
v 0.223877 0.748795 0.047728
v 0.219452 0.751862 0.063636
v 0.177673 0.783203 0.128773
v 0.182388 0.789993 0.086611
v 0.193176 0.778824 0.088717
v 0.168533 0.750290 0.211215
v 0.168793 0.764496 0.174975
v 0.181763 0.733887 0.196934
v 0.133835 0.750061 0.261019
v 0.133850 0.778458 0.229944
v 0.144577 0.777435 0.225447
v 0.204117 0.700058 -0.196404
v 0.165604 0.709976 -0.194661
v 0.185120 0.679230 -0.192258
v 0.282593 0.662155 0.049435
v 0.280319 0.692047 0.031801
v 0.280579 0.680893 0.022899
v 0.277161 0.671631 0.013402
v 0.258911 0.626083 0.031713
v 0.274445 0.644211 0.041236
v 0.299637 0.595123 0.028627
v 0.311813 0.572601 0.021961
v 0.302887 0.573700 0.056996
v 0.292923 0.635818 -0.056864
v 0.285110 0.610443 -0.047696
v 0.294556 0.632294 -0.024441
v 0.282806 0.686508 0.006674
v 0.284866 0.700806 0.000971
v 0.293945 0.674881 -0.019758
v 0.281998 0.684433 -0.096381
v 0.273315 0.701065 -0.103835
v 0.284393 0.685165 -0.120263
v 0.293564 0.634521 -0.060619
v 0.292587 0.637070 -0.059568
v 0.288300 0.668777 -0.073448
v 0.285767 0.636475 -0.003957
v 0.287582 0.652817 0.001689
v 0.186203 0.751465 0.165748
v 0.201370 0.733383 0.159894
v 0.199173 0.714142 0.188515
v 0.253555 0.677017 0.141860
v 0.239258 0.677277 0.168283
v 0.236649 0.680038 0.169074
v 0.209625 0.694473 0.172057
v 0.223099 0.703110 0.160186
v 0.248932 0.655457 0.191789
v 0.269882 0.640717 0.180069
v 0.247299 0.647598 0.195373
v 0.248367 0.645721 0.197746
v 0.272507 0.638351 0.181423
v 0.257431 0.645691 0.207238
v 0.207886 0.658600 0.220975
v 0.209900 0.680756 0.217856
v 0.218597 0.673981 0.215036
v 0.275681 0.635651 0.178518
v 0.287781 0.610718 0.200078
v 0.275116 0.635880 0.175564
v 0.277756 0.613281 0.145963
v 0.275864 0.586807 0.157750
v 0.223343 0.728363 0.113233
v 0.234253 0.717361 0.104380
v 0.240662 0.702133 0.125259
v 0.280304 0.652161 0.075727
v 0.279999 0.645523 0.107048
v 0.275314 0.676041 0.106885
v 0.252304 0.604279 0.125668
v 0.269562 0.619385 0.116592
v 0.260498 0.610947 0.101994
v 0.297455 0.598663 0.029521
v 0.298370 0.596909 0.031250
v 0.293945 0.596100 0.063919
v 0.154709 0.718475 -0.184190
v 0.143097 0.750824 -0.142526
v 0.125229 0.771378 -0.096812
v 0.122650 0.518417 0.122526
v 0.123886 0.515549 0.123108
v 0.126266 0.495850 0.112969
v 0.009903 0.675644 0.016948
v 0.024551 0.649689 0.068362
v 0.012192 0.595367 0.087183
v 0.011139 0.539642 0.062241
v 0.076172 0.731781 0.116847
v 0.087036 0.764740 0.065105
v 0.267883 0.543213 0.157154
v 0.223526 0.519394 0.153614
v 0.250076 0.556000 0.154332
v 0.007690 0.603058 -0.072689
v 0.008835 0.644913 -0.033259
v 0.234680 0.678574 0.172509
v 0.220062 0.683823 0.182250
v 0.209595 0.692413 0.174364
v 0.207504 0.695160 0.174484
v 0.206635 0.657715 0.223987
v 0.234634 0.710266 0.080783
v 0.234222 0.711594 0.078061
v 0.236755 0.709930 0.078846
v 0.252060 0.604538 0.127459
v 0.259720 0.623840 0.030453
v 0.259201 0.625488 0.029166
v 0.281982 0.623978 -0.002778
v 0.280563 0.626358 -0.003141
v 0.277573 0.668335 0.010769
v 0.277283 0.671951 0.011202
v 0.277145 0.675629 -0.079753
v 0.276596 0.676865 -0.082563
v 0.220398 0.517212 0.155195
v 0.220047 0.516251 0.153260
v 0.161850 0.506104 0.149766
v -0.000259 0.440826 0.139755
v 0.003098 0.438080 0.142872
v 0.016022 0.508560 -0.129856
v 0.017502 0.079117 -0.129616
v 0.022781 0.131073 -0.096671
v 0.046463 0.130798 -0.106381
v 0.069305 0.075821 -0.182237
v 0.052917 0.124649 -0.158802
v 0.066345 0.127029 -0.166976
v 0.058746 0.214798 -0.060884
v 0.080841 0.231491 -0.072579
v 0.112274 0.381836 -0.018433
v 0.107941 0.378677 -0.003852
v 0.097336 0.408691 0.008592
v 0.136566 0.309631 -0.020297
v 0.134125 0.307098 -0.016258
v 0.131897 0.308273 -0.012135
v 0.086502 0.249512 -0.033714
v 0.082657 0.236359 -0.054084
v 0.087402 0.230042 -0.085887
v 0.064743 0.223145 -0.157733
v 0.096710 0.410858 0.007281
v 0.097153 0.412476 0.010063
v 0.110504 0.469437 0.030801
v 0.120911 0.494858 -0.015145
v 0.110931 0.485596 -0.043062
v -0.009201 0.385605 0.128007
v -0.009201 0.383621 0.137288
v 0.000015 0.383713 0.136964
v 0.032333 0.433044 0.185997
v 0.026001 0.019501 -0.238301
v 0.019028 0.000595 -0.170382
v 0.040756 0.015228 -0.228164
v 0.039108 0.016388 -0.231109
v 0.021683 0.024063 -0.239518
v 0.005844 0.467743 0.051259
v 0.052307 0.535767 0.186241
v 0.039642 0.543335 0.170286
v 0.035675 0.590546 0.184321
v 0.091690 0.558914 0.254795
v 0.181671 0.532089 -0.094899
v 0.206924 0.532608 -0.074866
v 0.227844 0.546463 -0.056423
v 0.232422 0.547653 -0.082334
v 0.156418 0.515625 0.062902
v 0.147842 0.501892 0.086105
v 0.149872 0.500595 0.092380
v 0.122986 0.516632 0.126036
v 0.121643 0.517838 0.124415
v 0.091507 0.524460 0.129642
v 0.160904 0.506912 0.152399
v 0.153275 0.498062 0.166032
v 0.288116 0.512253 0.109249
v 0.272537 0.526245 0.144822
v 0.291855 0.548203 0.114795
v 0.294144 0.532730 0.115903
v 0.237747 0.757599 -0.044102
v 0.230682 0.759445 0.008556
v 0.217682 0.778152 0.001503
v 0.274841 0.636093 0.017683
v 0.283188 0.658554 0.005018
v 0.286438 0.671036 -0.094808
v 0.290939 0.663773 -0.111608
v 0.281128 0.695816 -0.037251
v 0.214539 0.721161 0.146503
v 0.238937 0.675888 0.171527
v 0.203232 0.692413 0.229729
v 0.203400 0.701904 0.205629
v 0.275177 0.695358 0.097936
v 0.270981 0.703033 0.082086
v 0.033615 0.533066 0.146216
v 0.046539 0.529510 0.143347
v 0.180832 0.660034 -0.163646
v 0.136780 0.749115 -0.145097
v 0.171555 0.551224 0.009531
v 0.239304 0.675598 0.169488
v -0.009201 0.441101 0.138642
v -0.000153 0.431442 0.150712
v -0.009201 0.430466 0.150869
v 0.062531 0.446060 0.147553
v 0.004486 0.434204 0.146632
v 0.003143 0.433029 0.148687
v 0.026077 0.264435 -0.159926
v 0.025894 0.153732 -0.203184
v 0.018372 0.033844 -0.152395
v 0.035065 0.244232 -0.002591
v 0.034027 0.205200 -0.046761
v 0.010818 0.212097 -0.040924
v 0.020203 0.237366 -0.002049
v 0.018677 0.310364 0.044075
v 0.025513 0.286758 0.032495
v 0.046402 0.311615 0.040226
v 0.032181 0.276581 0.019479
v 0.024323 0.350815 0.059277
v 0.005905 0.464066 -0.126369
v 0.021957 0.368881 -0.120666
v 0.024902 0.338791 -0.130488
v 0.031891 0.554108 -0.076353
v 0.007141 0.420547 -0.101270
v 0.050034 0.163742 -0.084310
v 0.071915 0.054276 -0.193332
v 0.068115 0.036484 -0.212455
v 0.068054 0.032562 -0.204524
v 0.075638 0.203934 -0.124519
v 0.059036 0.207550 -0.081356
v 0.075073 0.185867 -0.073586
v 0.081955 0.154678 -0.080162
v 0.044876 0.212265 -0.049356
v 0.057800 0.211273 -0.081840
v 0.057556 0.211502 -0.062112
v 0.069916 0.314148 0.030076
v 0.095779 0.311783 0.012378
v 0.095932 0.408569 0.011258
v 0.104645 0.309570 -0.006515
v 0.103638 0.257477 -0.049382
v 0.095474 0.244522 -0.060900
v 0.124542 0.259186 -0.075551
v 0.126450 0.349823 -0.061271
v 0.132706 0.321838 -0.052841
v 0.130325 0.317032 -0.045670
v 0.121689 0.333374 -0.039093
v 0.097107 0.416901 -0.030704
v 0.099884 0.392593 -0.059915
v 0.056046 0.254410 -0.161776
v 0.085175 0.258789 -0.149343
v 0.085876 0.315979 -0.141239
v 0.137512 0.314468 -0.021378
v 0.131088 0.316055 -0.009714
v 0.132568 0.319626 -0.011908
v 0.104370 0.239975 -0.090141
v 0.091553 0.235443 -0.080314
v 0.070312 0.216492 -0.133026
v 0.099976 0.363892 -0.109177
v 0.052505 0.236282 -0.169636
v 0.066055 0.227097 -0.156779
v 0.020935 0.066498 -0.223959
v 0.018112 0.106827 -0.208863
v 0.080475 0.427765 -0.083117
v 0.159439 0.519852 -0.008178
v 0.138870 0.499588 -0.047665
v 0.148987 0.504669 -0.009364
v 0.091537 0.504654 0.061687
v 0.096756 0.506378 0.071275
v 0.100800 0.518021 0.078176
v 0.030640 0.492706 0.089554
v 0.137466 0.519379 0.043840
v 0.068497 0.218689 -0.136058
v 0.084656 0.467010 0.060541
v 0.053909 0.416077 0.041162
v 0.034119 0.451431 0.192079
v 0.025497 0.487549 0.164800
v 0.059830 0.468399 0.165432
v 0.049088 0.485962 0.153777
v 0.090530 0.502151 0.059571
v 0.021622 0.267166 0.021757
v 0.071991 0.058548 -0.203335
v 0.108215 0.321594 -0.005590
v 0.112915 0.309631 -0.004233
v 0.116486 0.296219 -0.012277
v 0.113922 0.320679 -0.004649
v 0.118591 0.331970 -0.011559
v 0.124573 0.335541 -0.021808
v 0.130341 0.330963 -0.032655
v 0.133957 0.316528 -0.040914
v 0.136475 0.304916 -0.027596
v 0.138275 0.315430 -0.029513
v 0.131195 0.300461 -0.037998
v 0.124512 0.310928 -0.005505
v 0.126846 0.302155 -0.010767
v 0.125183 0.318146 -0.005776
v 0.128220 0.325531 -0.010298
v 0.132141 0.327881 -0.017003
v 0.134476 0.320755 -0.015160
v 0.135986 0.324600 -0.024261
v 0.136383 0.318985 -0.018780
v 0.131439 0.299683 -0.019270
v 0.114838 0.245621 -0.095347
v 0.115372 0.373001 -0.079262
v 0.016235 0.484253 0.065593
v 0.112915 0.488098 -0.045023
v 0.053619 0.412415 0.041451
v 0.018066 0.434097 -0.000441
v 0.042923 0.016006 -0.229424
v 0.053986 0.163300 -0.084695
v 0.044571 0.209412 -0.052494
v 0.007736 0.592575 0.110603
v 0.010239 0.559097 0.114413
v 0.031204 0.603821 -0.074535
v 0.114929 0.731369 -0.083596
v 0.128342 0.715256 -0.119648
v 0.099777 0.800858 0.029268
v 0.087479 0.766037 0.028265
v 0.096649 0.761719 -0.022748
v 0.109177 0.791672 -0.029401
v 0.096420 0.798355 0.133452
v 0.099228 0.802872 0.071110
v 0.095566 0.773758 0.228578
v 0.093842 0.789444 0.175186
v 0.104019 0.717087 0.290833
v 0.091995 0.713394 0.235365
v 0.101837 0.751694 0.261060
v 0.102158 0.680023 0.311279
v 0.088455 0.622604 0.272709
v 0.080032 0.601395 0.289937
v 0.058136 0.551834 0.213693
v 0.042633 0.606110 0.203296
v 0.086014 0.536697 0.215119
v 0.078217 0.517761 0.180420
v 0.050629 0.522614 0.165980
v 0.033157 0.554199 0.159394
v 0.026245 0.586945 0.174297
v 0.039627 0.704147 0.062143
v 0.032166 0.683716 0.103992
v 0.119705 0.693466 -0.109092
v 0.092941 0.721939 -0.020344
v 0.074677 0.723160 0.028564
v 0.073471 0.677841 0.216702
v 0.071442 0.713043 0.173997
v 0.096634 0.639725 0.285201
v 0.057465 0.672302 0.138973
v 0.057190 0.646591 0.188064
v 0.061340 0.626633 0.220974
v 0.107224 0.711014 -0.075532
v 0.146027 0.693283 -0.148219
v 0.066223 0.716324 0.065103
v 0.048386 0.713333 0.023361
v 0.061874 0.694931 0.104568
v 0.053635 0.620148 0.158337
v 0.051117 0.584518 -0.115494
v 0.121475 0.606277 -0.140777
v 0.093994 0.593430 -0.143776
v 0.104919 0.574341 -0.145589
v 0.078186 0.635925 -0.119580
v 0.183289 0.606201 -0.135817
v 0.157349 0.629211 -0.133398
v 0.170120 0.647537 -0.146817
v 0.043488 0.649673 -0.084246
v 0.017059 0.664612 -0.033281
v 0.058167 0.715973 -0.021961
v 0.039230 0.712814 -0.025164
v 0.009552 0.605789 0.119968
v 0.007126 0.618164 0.133492
v 0.209106 0.585968 -0.131198
v 0.021042 0.514481 0.150814
v 0.224091 0.564621 -0.111541
v 0.221863 0.597610 -0.143807
v 0.196014 0.622391 -0.149692
v 0.251648 0.550934 -0.085834
v 0.245453 0.571747 -0.122963
v 0.238541 0.539032 -0.051371
v 0.190796 0.534943 0.025840
v 0.220963 0.535294 -0.004302
v 0.203842 0.552780 -0.016036
v 0.122238 0.504059 0.084087
v 0.218414 0.522583 0.045299
v 0.190308 0.515823 0.085097
v 0.258423 0.570831 -0.138247
v 0.277374 0.548416 -0.092655
v 0.294601 0.541595 -0.100473
v 0.277817 0.569565 -0.151476
v 0.270493 0.535995 -0.045181
v 0.291916 0.527542 -0.044626
v 0.252991 0.528595 -0.001122
v 0.285141 0.513062 0.002495
v 0.168945 0.491791 0.114662
v 0.203094 0.488495 0.112139
v 0.233124 0.489502 0.099495
v 0.273636 0.488342 0.097487
v 0.250351 0.491150 0.082564
v 0.254257 0.485794 0.118585
v 0.286713 0.493835 0.072575
v 0.263336 0.496185 0.059788
v 0.316025 0.538574 -0.105292
v 0.315521 0.519028 -0.043979
v 0.275558 0.610123 -0.188663
v 0.252167 0.601807 -0.181978
v 0.296997 0.573715 -0.159087
v 0.236816 0.654587 -0.205773
v 0.219833 0.641281 -0.195708
v 0.307220 0.589493 -0.140422
v 0.285889 0.625671 -0.178719
v 0.308640 0.507858 0.008142
v 0.318848 0.534653 0.016095
v 0.323502 0.544907 -0.031861
v 0.301102 0.520233 0.082716
v 0.162216 0.488434 0.140092
v 0.274231 0.504669 0.031109
v 0.110977 0.530045 0.104807
v 0.050690 0.523972 0.159651
v 0.078506 0.513016 0.161968
v 0.110306 0.515411 0.173696
v 0.110626 0.502563 0.162283
v 0.118103 0.528381 0.215806
v 0.101471 0.590363 0.292175
v 0.129395 0.581619 0.284053
v 0.121628 0.548431 0.255083
v 0.113480 0.627533 0.313268
v 0.143661 0.617569 0.300525
v 0.123505 0.675232 0.314846
v 0.160080 0.660370 0.305501
v 0.171646 0.604645 0.291512
v 0.155151 0.571533 0.282152
v 0.168671 0.537735 0.257638
v 0.168015 0.568405 0.277226
v 0.265427 0.552124 0.176472
v 0.262650 0.583328 0.145148
v 0.309494 0.559158 0.053966
v 0.302917 0.546188 0.083879
v 0.298355 0.562332 0.089510
v 0.316635 0.576096 -0.025284
v 0.310532 0.590759 -0.063724
v 0.321533 0.575928 -0.075458
v 0.323242 0.561646 -0.028297
v 0.323914 0.565247 -0.086473
v 0.301956 0.621078 -0.094386
v 0.291306 0.654846 -0.130951
v 0.202667 0.790146 -0.004766
v 0.222748 0.770050 -0.052508
v 0.189224 0.791824 0.047794
v 0.158066 0.810913 0.130189
v 0.167191 0.811981 0.084616
v 0.192841 0.765854 0.129604
v 0.206085 0.762680 0.094168
v 0.153336 0.795959 0.190204
v 0.133835 0.721680 0.292095
v 0.166245 0.706406 0.273859
v 0.131973 0.800217 0.188758
v 0.138947 0.810669 0.129951
v 0.137314 0.814606 0.080506
v 0.137817 0.817245 0.037418
v 0.167633 0.816284 0.044119
v 0.147202 0.807587 -0.019114
v 0.181183 0.808746 -0.011925
v 0.174835 0.762909 -0.135263
v 0.161072 0.787201 -0.086570
v 0.194824 0.734344 -0.173894
v 0.226501 0.742096 -0.156646
v 0.210800 0.768127 -0.116362
v 0.195023 0.791672 -0.074378
v 0.206787 0.630722 -0.167493
v 0.209213 0.485306 0.137727
v 0.256317 0.717041 0.045660
v 0.253860 0.712067 0.079464
v 0.237106 0.717209 0.043493
v 0.269302 0.709381 0.041918
v 0.272018 0.632904 0.073693
v 0.290298 0.592163 -0.015985
v 0.285599 0.615585 0.033011
v 0.292389 0.619461 -0.005368
v 0.237167 0.747772 0.012664
v 0.234711 0.736023 0.047259
v 0.252380 0.725784 0.014742
v 0.239365 0.729950 0.011694
v 0.267334 0.719650 0.013580
v 0.288589 0.595337 -0.014989
v 0.248428 0.747223 -0.035294
v 0.248474 0.742004 -0.033281
v 0.237289 0.732590 0.011854
v 0.259155 0.734726 -0.026939
v 0.250198 0.739197 -0.031636
v 0.269760 0.725006 -0.011465
v 0.261917 0.726883 -0.072238
v 0.272568 0.712616 -0.055581
v 0.267136 0.696869 -0.047600
v 0.268097 0.695389 -0.045094
v 0.251205 0.742416 -0.084331
v 0.230316 0.728500 0.071826
v 0.219437 0.734955 0.100061
v 0.219086 0.743881 0.101204
v 0.220505 0.731979 0.102456
v 0.201324 0.741623 0.131058
v 0.199326 0.754181 0.133712
v 0.201447 0.721619 0.152170
v 0.203445 0.738510 0.130785
v 0.212387 0.733032 0.131570
v 0.199326 0.723145 0.154562
v 0.220612 0.657806 0.240054
v 0.190170 0.684418 0.256343
v 0.207565 0.673859 0.245497
v 0.185974 0.704208 0.234311
v 0.240921 0.693100 0.113794
v 0.257965 0.697083 0.109056
v 0.242935 0.692413 0.111787
v 0.264465 0.677399 0.120221
v 0.255951 0.669510 0.126318
v 0.263382 0.582596 0.143232
v 0.278275 0.590897 0.128139
v 0.278351 0.572739 0.141717
v 0.254654 0.669998 0.129045
v 0.266998 0.618408 0.068391
v 0.267914 0.615967 0.067899
v 0.261169 0.608704 0.101692
v 0.286072 0.607971 -0.050036
v -0.009201 0.423096 0.131270
v -0.000061 0.422882 0.132397
v 0.004654 0.421646 0.138318
v 0.003311 0.421173 0.140522
v 0.004730 0.414856 0.135084
v 0.003387 0.414383 0.137289
v -0.009201 0.420578 0.143121
v -0.009201 0.413788 0.139887
v -0.009201 0.416077 0.129020
v 0.000290 0.415863 0.130179
v 0.003281 0.422272 0.135333
v 0.003372 0.415283 0.133085
v -0.009201 0.397827 0.126160
v 0.000137 0.397614 0.127288
v 0.003464 0.397217 0.129236
v 0.000076 0.413895 0.139543
v 0.003494 0.396332 0.133440
v 0.000168 0.395828 0.135694
v -0.009201 0.395737 0.136039
v -0.000031 0.385391 0.129066
v 0.003098 0.385025 0.130897
v 0.004822 0.396805 0.131236
v 0.004379 0.384628 0.132775
v 0.003128 0.384186 0.134846
v 0.068329 0.018921 -0.211808
v 0.066269 0.018539 -0.220675
v 0.073410 0.165527 -0.130430
v 0.092087 0.230515 -0.118482
v 0.090775 0.428375 -0.054529
v 0.130768 0.312546 -0.009583
v 0.123444 0.497467 -0.015999
v 0.049591 0.463608 0.135871
v 0.071030 0.432632 0.160073
v 0.074860 0.453812 0.173385
v 0.123489 0.292465 -0.025271
v 0.090027 0.637268 0.306439
v 0.069504 0.656418 -0.124000
v 0.034882 0.675858 -0.085103
v 0.232666 0.603790 -0.162064
v 0.299759 0.500656 0.041412
v 0.312057 0.527023 0.051528
v 0.316284 0.557159 0.023097
v 0.301727 0.627228 -0.082164
v 0.260605 0.713272 -0.121036
v 0.164215 0.727646 0.245622
v 0.175110 0.716202 0.238906
v 0.177155 0.695389 0.265088
v 0.234985 0.719269 0.043695
v 0.207184 0.683167 0.220263
v 0.280670 0.606842 0.094435
v 0.293747 0.583145 0.093894
v 0.293503 0.577835 0.118885
v 0.278748 0.612579 0.067280
v 0.000000 0.420685 0.142776
v 0.090134 0.439758 -0.095558
v 0.006790 0.687698 0.099402
v 0.006866 0.669769 0.129189
f 1 2 81
f 82 83 3
f 4 84 5
f 84 85 86
f 87 88 89
f 90 91 92
f 6 7 93
f 92 8 9
f 10 94 95
f 92 11 95
f 92 95 8
f 96 97 98
f 99 100 101
f 102 103 104
f 105 106 107
f 108 109 110
f 111 112 113
f 114 115 116
f 99 101 117
f 118 119 120
f 121 118 120
f 122 123 81
f 124 125 126
f 127 128 129
f 130 131 132
f 133 134 135
f 136 137 138
f 139 140 141
f 142 143 144
f 145 146 147
f 148 149 851
f 150 151 152
f 153 154 155
f 87 156 157
f 158 14 15
f 159 160 161
f 149 148 129
f 90 16 91
f 162 163 164
f 165 166 164
f 167 166 165
f 157 168 169
f 156 170 133
f 156 158 171
f 170 156 851
f 172 173 174
f 175 176 17
f 177 178 135
f 179 180 181
f 184 185 111
f 186 187 188
f 18 189 190
f 191 192 193
f 194 173 172
f 195 82 196
f 201 187 119
f 202 118 121
f 203 204 205
f 210 211 212
f 213 214 215
f 216 117 217
f 218 219 96
f 102 220 221
f 97 222 223
f 224 225 226
f 231 232 229
f 123 233 19
f 234 235 236
f 20 21 854 237
f 238 239 240
f 241 242 243
f 244 245 246
f 247 248 22
f 249 250 251
f 252 253 254
f 253 255 178
f 256 257 258
f 258 240 239
f 261 262 263
f 264 177 265
f 266 267 268
f 268 269 266
f 270 138 271
f 272 273 274
f 275 276 272
f 277 278 279
f 280 281 277
f 278 282 275
f 276 283 284
f 285 281 286
f 287 288 285
f 289 290 291
f 292 293 294
f 295 296 297
f 298 299 300
f 301 302 303
f 304 305 306
f 307 308 309
f 310 311 312
f 313 314 315
f 316 317 318
f 319 320 321
f 322 323 324
f 325 326 327
f 328 329 330
f 321 331 332
f 333 334 335
f 336 337 338
f 339 340 338
f 341 342 343
f 344 345 346
f 347 348 349
f 345 350 351
f 352 353 354
f 355 356 357
f 358 359 360
f 361 362 363
f 364 365 366
f 367 368 369
f 370 371 372
f 271 181 180
f 373 261 374
f 248 375 376
f 241 377 378
f 379 380 381
f 382 383 9
f 382 9 24
f 384 385 386
f 386 387 339
f 389 390 391
f 393 314 394
f 397 313 398
f 401 380 402
f 364 316 365
f 403 402 289
f 33 404 405
f 89 406 35
f 89 156 87
f 93 27 6
f 407 408 409
f 410 210 215
f 411 217 412
f 218 96 98
f 97 223 228
f 155 224 226
f 227 413 414
f 415 416 417
f 418 419 420
f 106 421 422
f 205 424 122
f 425 426 427
f 127 428 429
f 139 141 193
f 430 431 432
f 34 28 433
f 434 435 208
f 209 436 437
f 13 438 12
f 129 128 170
f 36 439 166
f 191 175 192
f 217 411 216
f 409 103 102
f 440 441 442
f 443 236 235
f 265 136 264
f 444 445 446
f 444 446 447
f 448 449 450
f 451 452 453
f 401 454 455
f 456 291 290
f 457 458 459
f 460 461 462
f 396 394 463
f 397 398 322
f 324 332 464
f 463 464 332
f 330 465 466
f 467 330 329
f 332 319 321
f 338 340 468
f 469 352 342
f 470 471 335
f 360 472 473
f 143 474 475
f 476 309 308
f 369 477 367
f 180 478 271
f 338 337 479
f 33 480 404
f 481 482 34
f 483 484 485
f 486 152 38 39
f 19 233 486 39
f 40 487 81 2
f 408 41 42 153
f 407 43 41 408
f 435 13 44 488
f 153 42 45 154
f 489 490 491 492
f 493 494 46 47
f 493 495 496 494
f 497 160 495 493
f 3 83 497 48
f 5 84 86 49
f 157 135 178 168
f 7 35 406 93
f 498 89 35 26
f 88 87 157 169
f 14 158 498 26
f 499 50 51 500
f 501 27 93 168
f 502 15 52 94
f 53 54 376 85
f 503 153 155 226
f 211 407 221 212
f 207 488 407 211
f 504 206 210 410
f 505 506 206 199
f 215 186 188 410
f 232 507 98 229
f 225 508 222 509
f 102 104 510 219
f 160 159 110 109
f 511 490 489 107
f 413 511 107 106
f 512 224 513 228
f 514 515 184 105
f 197 110 159
f 197 516 108 110
f 416 108 516 417
f 185 184 515 517
f 518 421 184 111
f 519 422 421 518
f 111 113 520 518
f 521 522 523 524
f 525 415 417 425
f 526 114 415 525
f 126 527 528 529
f 530 418 531 532
f 519 518 533 534
f 227 414 423 230
f 203 205 122 81
f 204 101 100 535
f 412 217 117 101
f 126 529 536 124
f 537 538 183 527
f 438 437 200 539
f 540 539 200 201
f 125 124 541 171
f 525 425 427 127
f 194 428 127 427
f 177 135 134 265
f 137 136 265 134
f 542 137 543 544
f 271 138 137 542
f 174 173 545 546
f 546 141 140 547
f 548 139 193 192
f 175 17 548 192
f 547 179 181 549
f 183 538 550 231
f 426 198 551 427
f 552 163 551 198
f 17 33 139 548
f 433 28 55 553
f 147 146 433 553
f 56 554 553 55
f 555 553 554 556
f 557 551 163 191
f 496 489 492 558
f 437 434 208 209
f 158 150 125 171
f 176 57 58 17
f 195 190 165 164
f 552 195 164 163
f 199 206 504 559
f 437 438 434
f 37 36 166 167
f 439 162 164 166
f 406 169 168 93
f 171 541 851 156
f 414 413 422
f 523 522 113 112
f 517 515 108 560
f 219 510 509 222
f 409 408 153 503
f 561 562 185 517
f 563 561 517 560
f 564 563 560 116
f 565 564 116 115
f 566 565 115 524
f 567 566 524 523
f 568 569 567 570
f 571 572 562 561
f 573 571 561 563
f 574 573 563 564
f 575 574 564 565
f 574 575 576 532
f 575 577 578 576
f 419 418 568 579
f 579 572 420 419
f 151 150 158 15
f 151 15 502 499
f 232 231 550 535
f 582 36 57 176
f 130 429 583 131
f 552 198 197 584
f 585 59 18 190
f 586 199 200 437
f 202 201 119 118
f 203 202 121 204
f 550 205 204 535
f 208 207 206 209
f 186 215 214 120
f 220 216 214 213
f 507 232 535 100
f 218 220 102 219
f 102 221 407 409
f 222 508 512 223
f 508 225 224 512
f 409 503 587 103
f 511 413 513 588
f 228 513 413 227
f 229 228 227 230
f 205 550 538 424
f 376 375 589 590
f 382 591 249 383
f 369 592 593 477
f 594 595 596 597
f 598 241 378 599
f 600 243 242 601
f 602 244 603 604
f 605 245 244 602
f 235 234 606 607
f 234 236 608 609
f 440 608 610 611
f 441 440 611 612
f 441 613 614 442
f 257 617 240 258
f 618 596 595 619
f 603 620 621 243
f 603 244 246 620
f 622 606 246 245
f 623 621 620 624
f 595 594 599 378
f 234 609 624 625
f 593 592 626 617
f 257 627 593 617
f 624 631 237 623
f 591 632 250 249
f 255 253 632 591
f 269 633 634 635
f 634 633 636 251
f 382 501 255 591
f 269 637 638 633
f 638 639 257 256
f 383 249 640 641
f 642 643 239 238
f 60 61 644 645
f 62 63 262 261
f 641 64 65 373
f 442 614 66 20
f 266 254 177 264
f 637 269 268 646
f 647 474 143 142
f 138 270 445 444
f 267 266 264 444
f 444 447 648 267
f 646 649 650 637
f 447 651 652 648
f 446 653 651 447
f 478 654 655 656
f 180 448 654 478
f 372 450 449 657
f 658 654 448 659
f 660 652 651 661
f 661 662 663 660
f 664 665 662 661
f 666 667 665 664
f 668 669 670 659
f 671 672 670 673
f 674 675 672 671
f 676 662 665 677
f 678 679 663 680
f 681 682 679 678
f 680 683 684 678
f 685 686 687 677
f 671 456 688 674
f 372 371 403 689
f 659 448 450 668
f 666 658 690 667
f 452 370 691 453
f 475 692 693 453
f 611 694 695 693
f 610 696 694 611
f 697 698 699 443
f 698 697 700 701
f 701 700 702 703
f 704 701 703 280
f 705 698 701 704
f 706 699 698 705
f 273 694 696 274
f 455 695 694 273
f 401 455 276 284
f 274 706 275 272
f 275 706 705 707
f 275 707 279 278
f 279 704 280 277
f 285 278 277 281
f 285 288 282 278
f 283 276 275 282
f 287 283 282 288
f 351 287 285 286
f 354 708 287 351
f 709 381 708 354
f 657 691 370 372
f 456 290 457 459
f 710 711 712 318
f 713 714 715 716
f 683 717 715 718
f 718 719 684 683
f 293 684 719 294
f 460 462 720 721
f 461 296 295 462
f 295 300 299 722
f 298 723 724 299
f 725 298 300 726
f 723 298 302 727
f 301 306 727 302
f 333 335 303 302
f 702 728 729 703
f 604 304 728 602
f 727 730 731 723
f 599 732 731 598
f 599 594 733 732
f 734 733 735 736
f 369 368 737 738
f 739 737 368 367
f 740 741 737 739
f 292 307 681 293
f 742 736 735 738
f 597 369 738 735
f 638 637 650 639
f 682 309 476 743
f 681 307 309 682
f 673 744 289 291
f 745 746 391 747
f 310 358 748 311
f 315 749 358 310
f 750 713 317 316
f 751 393 395 752
f 396 463 332 331
f 463 394 397 464
f 753 754 296 461
f 755 745 747 756
f 323 311 748 757
f 322 312 311 323
f 312 322 398 313
f 397 322 324 464
f 396 331 321
f 752 395 396 321
f 320 758 752 321
f 759 753 461 460
f 760 761 753 759
f 762 755 756 763
f 764 757 755 762
f 467 324 764 762
f 460 765 766 759
f 760 759 766 767
f 467 762 763 768
f 460 721 769 765
f 324 467 329 319
f 330 399 400 465
f 325 400 767 766
f 770 390 771 772
f 356 355 773 389
f 772 771 774 775
f 468 776 777 778
f 775 774 779 334
f 468 340 339 776
f 342 341 384 469
f 346 780 388 344
f 341 343 347 349
f 780 281 781 782
f 470 783 335 471
f 782 781 783 470
f 385 384 341 349
f 389 784 357 356
f 746 785 786 391
f 473 472 785 746
f 787 788 786 785
f 360 359 362 787
f 788 787 362 361
f 789 361 790 791
f 453 144 143 475
f 627 476 308 367
f 702 605 602 728
f 692 612 611 693
f 792 392 353 336
f 624 609 442 631
f 263 247 374 261
f 376 67 22 248
f 630 628 378 377
f 27 501 382 24
f 68 16 90 383
f 179 144 453 691
f 352 350 345 342
f 384 338 479 469
f 344 388 347 343
f 343 342 345 344
f 339 338 384 386
f 387 779 776 339
f 777 776 779 774
f 773 777 774 771
f 771 390 389 773
f 784 389 391 786
f 786 788 792 784
f 363 793 794 795
f 395 393 394 396
f 761 760 763 756
f 760 767 768 763
f 399 768 767 400
f 361 789 709 392
f 381 709 789
f 328 796 320 319
f 758 320 796 750
f 370 452 451 371
f 454 401 402 403
f 404 480 797 798
f 485 484 799 800
f 800 799 801 802
f 805 806 798 797
f 799 807 808 801
f 806 805 809 810
f 808 806 810 811
f 812 802 813 814
f 804 812 814 815
f 810 809 430 816
f 811 810 816 817
f 818 819 820 813
f 815 814 432 431
f 81 123 19 1
f 12 438 539 69
f 70 69 539 540
f 70 540 487 40
f 488 44 43 407
f 72 492 491 71
f 46 558 492 72
f 46 494 496 558
f 48 497 493 47
f 82 584 161 83
f 59 585 196 25
f 167 165 190 189
f 161 160 497 83
f 25 196 82 3
f 4 53 85 84
f 168 178 255 501
f 169 406 89 88
f 89 498 158 156
f 75 50 499 502
f 383 90 92 9
f 54 73 91 376
f 67 376 91 16
f 74 10 95 11
f 52 8 95 94
f 10 75 502 94
f 11 92 91 73
f 582 162 439 36
f 208 435 488 207
f 821 209 206 506
f 209 821 822
f 436 209 822 586
f 559 504 410 188
f 822 821 506 505
f 505 199 586 822
f 188 187 199 559
f 212 221 220 213
f 411 412 120
f 487 540 201 202
f 823 216 220 218
f 823 218 98 507
f 98 97 228 229
f 81 487 202 203
f 495 160 109 514
f 105 496 495 514
f 489 496 105 107
f 588 513 224 155
f 184 421 106 105
f 109 108 515 514
f 116 560 108 416
f 534 414 422 519
f 533 580 182 824
f 416 415 114 116
f 581 521 114 526
f 124 536 581 526
f 148 825 526 525
f 124 526 825 541
f 420 826 531 418
f 576 578 530 532
f 413 106 422
f 520 580 533 518
f 512 228 223
f 230 423 533 824
f 533 423 414 534
f 120 412 121
f 183 182 528 527
f 233 537 527 486
f 486 527 126 152
f 427 551 557 194
f 128 127 429 130
f 170 128 130 132
f 134 133 170 132
f 156 133 135 157
f 132 543 137 134
f 131 583 543 132
f 544 543 583 827
f 544 174 549 542
f 547 549 174 546
f 140 144 179 547
f 545 193 141 546
f 140 139 142 144
f 647 142 556 554
f 828 556 142 139
f 483 555 556 828
f 829 830 555 483
f 830 829 145 147
f 541 825 148 851
f 819 817 816 820
f 432 820 816 430
f 139 33 405 828
f 830 147 553 555
f 145 34 433 146
f 435 434 438 13
f 51 38 152 500
f 126 125 150 152
f 191 163 162 582
f 197 159 161 584
f 170 851 149 129
f 56 78 647 554
f 167 29 37
f 549 181 271 542
f 827 172 174 544
f 148 525 127 129
f 101 204 121 412
f 115 114 521 524
f 231 824 182 183
f 587 510 104 103
f 167 189 18 29
f 831 570 112 111
f 562 831 111 185
f 570 567 523 112
f 577 575 565 566
f 569 577 566 567
f 579 568 570 831
f 572 579 831 562
f 571 573 531 826
f 573 574 532 531
f 577 569 530 578
f 418 530 569 568
f 572 571 826 420
f 510 587 225 509
f 152 151 499 500
f 425 417 516 426
f 437 436 586
f 176 175 191 582
f 193 545 557 191
f 194 557 545 173
f 428 194 172 827
f 429 428 827 583
f 584 82 195 552
f 516 197 198 426
f 196 585 190 195
f 199 187 201 200
f 207 211 210 206
f 215 210 212 213
f 187 186 120 119
f 120 214 216 411
f 216 823 99 117
f 823 507 100 99
f 97 96 219 222
f 503 226 225 587
f 491 490 155 154
f 154 45 71 491
f 490 511 588 155
f 824 231 229 230
f 122 424 538 537
f 537 233 123 122
f 85 376 590 86
f 263 644 589 375
f 262 645 644 263
f 476 627 257 639
f 593 627 367 477
f 601 242 241 598
f 604 603 243 600
f 832 622 245 605
f 607 606 622 832
f 608 440 442 609
f 443 610 608 236
f 607 832 700 697
f 700 832 605 702
f 628 619 595 378
f 621 623 630 377
f 621 377 241 243
f 625 246 606 234
f 624 620 246 625
f 697 443 235 607
f 592 369 597 596
f 618 626 592 596
f 240 617 626 238
f 642 238 626 618
f 237 616 630 623
f 20 237 631 442
f 374 30 68 373
f 30 374 247 22
f 636 833 834 640
f 636 640 249 251
f 632 253 252 250
f 177 254 253 178
f 635 634 252 254
f 254 266 269 635
f 250 252 634 251
f 638 256 636 633
f 373 68 383 641
f 239 643 64 834
f 640 834 64 641
f 834 833 258 239
f 76 589 644 61
f 79 590 589 76
f 49 86 590 79
f 614 613 77 66
f 65 62 261 373
f 645 262 63 60
f 656 270 271 478
f 446 445 270 656
f 264 136 138 444
f 646 268 267 648
f 648 652 649 646
f 656 655 653 446
f 657 449 448 180
f 689 668 450 372
f 666 655 654 658
f 664 653 655 666
f 661 651 653 664
f 835 649 652 660
f 743 650 649 835
f 835 679 682 743
f 660 663 679 835
f 670 672 658 659
f 689 744 669 668
f 670 669 744 673
f 836 690 675 674
f 685 667 690 836
f 677 665 667 685
f 680 663 662 676
f 678 684 293 681
f 676 717 683 680
f 677 687 717 676
f 836 837 686 685
f 674 688 837 836
f 673 291 456 671
f 672 675 690 658
f 695 451 453 693
f 443 699 696 610
f 274 696 699 706
f 454 451 695 455
f 273 272 276 455
f 705 704 279 707
f 708 381 401 284
f 284 283 287 708
f 180 179 691 657
f 290 289 402 457
f 459 458 712 711
f 837 688 711 710
f 716 687 686 838
f 838 317 713 716
f 710 318 317 838
f 686 837 710 838
f 715 717 687 716
f 718 715 714 839
f 839 466 719 718
f 294 719 466 327
f 326 840 294 327
f 292 294 840 740
f 840 769 741 740
f 326 765 769 840
f 721 742 741 769
f 742 721 720 736
f 722 734 736 720
f 462 295 722 720
f 299 724 734 722
f 297 726 300 295
f 333 302 298 725
f 841 304 306 301
f 303 842 841 301
f 335 783 842 303
f 729 728 304 841
f 842 843 729 841
f 783 781 843 842
f 280 843 781 281
f 703 729 843 280
f 600 305 304 604
f 730 727 306 305
f 305 600 601 730
f 598 731 730 601
f 723 731 732 724
f 733 734 724 732
f 597 735 733 594
f 737 741 742 738
f 307 739 367 308
f 744 689 403 289
f 476 639 650 743
f 292 740 739 307
f 711 688 456 459
f 754 770 297 296
f 844 390 770 754
f 748 358 360 473
f 310 312 313 315
f 793 749 315 314
f 366 365 316 318
f 751 752 758 364
f 761 844 754 753
f 757 748 745 755
f 714 713 750 796
f 796 328 839 714
f 757 764 324 323
f 745 748 473 746
f 325 766 765 326
f 465 325 327 466
f 466 839 328 330
f 330 467 768 399
f 465 400 325
f 324 319 332
f 772 726 297 770
f 355 778 777 773
f 775 725 726 772
f 333 725 775 334
f 779 387 335 334
f 468 357 336 338
f 353 479 337 336
f 479 353 352 469
f 470 845 388 782
f 845 470 335 387
f 780 782 388
f 787 785 472 360
f 349 348 386 385
f 286 281 780 346
f 286 346 345 351
f 351 350 352 354
f 468 778 355 357
f 749 793 363 362
f 359 358 749 362
f 784 792 336 357
f 846 847 848 790
f 847 712 458 848
f 366 318 712 847
f 846 849 366 847
f 849 751 364 366
f 790 848 458 791
f 379 791 458 457
f 791 379 381 789
f 354 353 392 709
f 790 361 795 846
f 794 849 846 795
f 474 647 78 613
f 77 613 78 80
f 613 441 612 474
f 475 474 612 692
f 375 248 247 263
f 380 379 457 402
f 393 751 849 794
f 833 636 256 258
f 328 319 329
f 845 387 386 348
f 388 845 348 347
f 788 361 392 792
f 361 363 795
f 793 314 393 794
f 314 313 397 394
f 390 844 747 391
f 844 761 756 747
f 401 381 380
f 750 316 364 758
f 403 371 451 454
f 484 483 828 405
f 34 145 829 481
f 485 481 829 483
f 405 404 798 807
f 484 405 807 799
f 481 485 800 850
f 482 481 850 803
f 850 800 802 812
f 803 850 812 804
f 807 798 806 808
f 801 808 811 818
f 802 801 818 813
f 811 817 819 818
f 814 813 820 432
f 182 580 529 528
f 536 522 521 581
f 529 580 520 113
f 529 113 522 536
f 260 615 616 853
f 628 615 629 619
f 630 616 615 628
f 853 616 237 854
f 259 629 615 260
f 619 629 642 618
f 64 643 259 32
f 629 259 643 642
f 852 32 259 260
f 260 853 23 31 852
f 23 853 854 21
f 1 858 2
f 859 3 860
f 4 855 861
f 861 863 862
f 864 866 865
f 867 869 868
f 6 870 7
f 869 9 8
f 856 872 871
f 869 872 11
f 869 8 872
f 873 875 874
f 876 878 877
f 879 881 880
f 882 884 883
f 885 887 886
f 888 890 889
f 891 893 892
f 876 894 878
f 895 897 896
f 898 897 895
f 899 858 900
f 901 903 902
f 904 906 905
f 907 909 908
f 910 912 911
f 913 915 914
f 916 918 917
f 919 921 920
f 922 924 923
f 925 1628 926
f 927 929 928
f 930 932 931
f 864 934 933
f 935 15 14
f 936 938 937
f 926 906 925
f 867 868 16
f 939 941 940
f 942 941 943
f 944 942 943
f 934 946 945
f 933 910 947
f 933 948 935
f 947 1628 933
f 949 951 950
f 952 17 953
f 954 912 955
f 956 958 957
f 961 888 962
f 963 965 964
f 18 967 966
f 968 970 969
f 971 949 950
f 972 973 859
f 978 896 964
f 979 898 895
f 980 982 981
f 987 989 988
f 990 992 991
f 993 994 894
f 995 873 996
f 879 998 997
f 874 1000 999
f 1001 1003 1002
f 1008 1006 1009
f 900 19 1010
f 1011 1013 1012
f 20 1014 1630 21
f 1015 1017 1016
f 1018 1020 1019
f 1021 1023 1022
f 1024 22 1025
f 1026 1028 1027
f 1029 1031 1030
f 1030 955 1032
f 1033 1035 1034
f 1035 1016 1017
f 1038 1040 1039
f 1041 1042 954
f 1043 1045 1044
f 1045 1043 1046
f 1047 1048 915
f 1049 1051 1050
f 1052 1049 1053
f 1054 1056 1055
f 1057 1054 1058
f 1055 1052 1059
f 1053 1061 1060
f 1062 1063 1058
f 1064 1062 1065
f 1066 1068 1067
f 1069 1071 1070
f 1072 1074 1073
f 1075 1077 1076
f 1078 1080 1079
f 1081 1083 1082
f 1084 1086 1085
f 1087 1089 1088
f 1090 1092 1091
f 1093 1095 1094
f 1096 1098 1097
f 1099 1101 1100
f 1102 1104 1103
f 1105 1107 1106
f 1098 1109 1108
f 1110 1112 1111
f 1113 1115 1114
f 1116 1115 1117
f 1118 1120 1119
f 1121 1123 1122
f 1124 1126 1125
f 1122 1128 1127
f 1129 1131 1130
f 1132 1134 1133
f 1135 1137 1136
f 1138 1140 1139
f 1141 1143 1142
f 1144 1146 1145
f 1147 1149 1148
f 1048 957 958
f 1150 1151 1038
f 1025 1153 1152
f 1018 1155 1154
f 1156 1158 1157
f 1159 9 1160
f 1159 24 9
f 1161 1163 1162
f 1163 1116 1164
f 1166 1168 1167
f 1170 1171 1091
f 1174 1175 1090
f 1178 1179 1157
f 1141 1142 1093
f 1180 1066 1179
f 33 1182 1181
f 866 35 1183
f 866 864 933
f 870 6 27
f 1184 1186 1185
f 1187 992 987
f 1188 1189 994
f 995 875 873
f 874 1005 1000
f 932 1003 1001
f 1004 1191 1190
f 1192 1194 1193
f 1195 1197 1196
f 883 1199 1198
f 982 899 1201
f 1202 1204 1203
f 904 1206 1205
f 916 970 918
f 1207 1209 1208
f 34 1210 28
f 1211 985 1212
f 986 1214 1213
f 13 12 1215
f 906 947 905
f 36 943 1216
f 968 969 952
f 994 993 1188
f 1186 879 880
f 1217 1219 1218
f 1220 1012 1013
f 1042 1041 913
f 1221 1223 1222
f 1221 1224 1223
f 1225 1227 1226
f 1228 1230 1229
f 1178 1232 1231
f 1233 1067 1068
f 1234 1236 1235
f 1237 1239 1238
f 1173 1240 1171
f 1174 1099 1175
f 1101 1241 1109
f 1240 1109 1241
f 1107 1243 1242
f 1244 1106 1107
f 1109 1098 1096
f 1115 1245 1117
f 1246 1119 1129
f 1247 1112 1248
f 1137 1250 1249
f 920 1252 1251
f 1253 1085 1086
f 1146 1144 1254
f 957 1048 1255
f 1115 1256 1114
f 33 1181 1257
f 1258 34 1259
f 1260 1262 1261
f 1263 39 38 929
f 19 39 1263 1010
f 40 2 858 1264
f 1185 930 42 41
f 1184 1185 41 43
f 1212 1265 44 13
f 930 931 45 42
f 1266 1269 1268 1267
f 1270 47 46 1271
f 1270 1271 1273 1272
f 1274 1270 1272 937
f 3 48 1274 860
f 855 49 863 861
f 934 945 955 912
f 7 870 1183 35
f 1275 26 35 866
f 865 946 934 864
f 14 26 1275 935
f 1276 1277 51 50
f 1278 945 870 27
f 1279 871 52 15
f 53 862 1153 54
f 1280 1003 932 930
f 988 989 998 1184
f 984 988 1184 1265
f 1281 1187 987 983
f 1282 976 983 1283
f 992 1187 965 963
f 1009 1006 875 1284
f 1002 1286 999 1285
f 879 996 1287 881
f 937 886 887 936
f 1288 884 1266 1267
f 1190 883 884 1288
f 1289 1005 1290 1001
f 1291 882 961 1292
f 974 936 887
f 974 887 885 1293
f 1193 1194 1293 885
f 962 1294 1292 961
f 1295 888 961 1198
f 1296 1295 1198 1199
f 888 1295 1297 890
f 1298 1301 1300 1299
f 1302 1202 1194 1192
f 1303 1302 1192 891
f 903 1306 1305 1304
f 1307 1309 1308 1195
f 1296 1311 1310 1295
f 1004 1007 1200 1191
f 980 858 899 982
f 981 1312 877 878
f 1189 878 894 994
f 903 901 1313 1306
f 1314 1304 960 1315
f 1215 1316 977 1214
f 1317 978 977 1316
f 902 948 1318 901
f 1302 904 1204 1202
f 971 1204 904 1205
f 954 1042 911 912
f 914 911 1042 913
f 1319 1321 1320 914
f 1048 1319 914 915
f 951 1323 1322 950
f 1323 1324 917 918
f 1325 969 970 916
f 952 969 1325 17
f 1324 1326 958 956
f 960 1008 1327 1315
f 1203 1204 1328 975
f 1329 975 1328 940
f 17 1325 916 33
f 1210 1330 55 28
f 924 1330 1210 923
f 56 55 1330 1331
f 1332 1333 1331 1330
f 1334 968 940 1328
f 1273 1335 1269 1266
f 1214 986 985 1211
f 935 948 902 927
f 953 17 58 57
f 972 941 942 967
f 1329 940 941 972
f 976 1336 1281 983
f 1214 1211 1215
f 37 944 943 36
f 1216 943 941 939
f 1183 870 945 946
f 948 933 1628 1318
f 1191 1199 1190
f 1300 889 890 1299
f 1294 1337 885 1292
f 996 999 1286 1287
f 1186 1280 930 1185
f 1338 1294 962 1339
f 1340 1337 1294 1338
f 1341 893 1337 1340
f 1342 892 893 1341
f 1343 1301 892 1342
f 1344 1300 1301 1343
f 1345 1347 1344 1346
f 1348 1338 1339 1349
f 1350 1340 1338 1348
f 1351 1341 1340 1350
f 1352 1342 1341 1351
f 1351 1309 1353 1352
f 1352 1353 1355 1354
f 1196 1356 1345 1195
f 1356 1196 1197 1349
f 928 15 935 927
f 928 1276 1279 15
f 1009 1312 1327 1008
f 1359 953 57 36
f 907 908 1360 1206
f 1329 1361 974 975
f 1362 967 18 59
f 1363 1214 977 976
f 979 895 896 978
f 980 981 898 979
f 1327 1312 981 982
f 985 986 983 984
f 963 897 991 992
f 997 990 991 993
f 1284 877 1312 1009
f 995 996 879 997
f 879 1186 1184 998
f 999 1000 1289 1285
f 1285 1289 1001 1002
f 1186 880 1364 1280
f 1288 1365 1290 1190
f 1005 1004 1190 1290
f 1006 1007 1004 1005
f 982 1201 1315 1327
f 1153 1367 1366 1152
f 1159 1160 1026 1368
f 1146 1254 1370 1369
f 1371 1374 1373 1372
f 1375 1376 1155 1018
f 1377 1378 1019 1020
f 1379 1381 1380 1021
f 1382 1379 1021 1022
f 1012 1384 1383 1011
f 1011 1386 1385 1013
f 1217 1388 1387 1385
f 1218 1389 1388 1217
f 1218 1219 1391 1390
f 1034 1035 1017 1394
f 1395 1396 1372 1373
f 1380 1020 1398 1397
f 1380 1397 1023 1021
f 1399 1022 1023 1383
f 1400 1401 1397 1398
f 1372 1155 1376 1371
f 1011 1402 1401 1386
f 1370 1394 1403 1369
f 1034 1394 1370 1404
f 1401 1400 1014 1408
f 1368 1026 1027 1409
f 1032 1368 1409 1030
f 1046 1412 1411 1410
f 1411 1028 1413 1410
f 1159 1368 1032 1278
f 1046 1410 1415 1414
f 1415 1033 1034 1416
f 1160 1418 1417 1026
f 1419 1015 1016 1420
f 60 1422 1421 61
f 62 1038 1039 63
f 1418 1150 65 64
f 1219 20 66 1391
f 1043 1041 954 1031
f 1414 1423 1045 1046
f 1424 919 920 1251
f 915 1221 1222 1047
f 1044 1221 1041 1043
f 1221 1044 1425 1224
f 1423 1414 1427 1426
f 1224 1425 1429 1428
f 1223 1224 1428 1430
f 1255 1433 1432 1431
f 957 1255 1431 1225
f 1149 1434 1226 1227
f 1435 1436 1225 1431
f 1437 1438 1428 1429
f 1438 1437 1440 1439
f 1441 1438 1439 1442
f 1443 1441 1442 1444
f 1445 1436 1447 1446
f 1448 1450 1447 1449
f 1451 1448 1449 1452
f 1453 1454 1442 1439
f 1455 1457 1440 1456
f 1458 1455 1456 1459
f 1457 1455 1461 1460
f 1462 1454 1464 1463
f 1448 1451 1465 1233
f 1149 1466 1180 1148
f 1436 1445 1227 1225
f 1443 1444 1467 1435
f 1229 1230 1468 1147
f 1252 1230 1470 1469
f 1388 1470 1472 1471
f 1387 1388 1471 1473
f 1474 1220 1476 1475
f 1475 1478 1477 1474
f 1478 1480 1479 1477
f 1481 1057 1480 1478
f 1482 1481 1478 1475
f 1483 1482 1475 1476
f 1050 1051 1473 1471
f 1232 1050 1471 1472
f 1178 1061 1053 1232
f 1051 1049 1052 1483
f 1052 1484 1482 1483
f 1052 1055 1056 1484
f 1056 1054 1057 1481
f 1062 1058 1054 1055
f 1062 1055 1059 1065
f 1060 1059 1052 1053
f 1064 1065 1059 1060
f 1128 1063 1062 1064
f 1131 1128 1064 1485
f 1486 1131 1485 1158
f 1434 1149 1147 1468
f 1233 1236 1234 1067
f 1487 1095 1489 1488
f 1490 1493 1492 1491
f 1460 1495 1492 1494
f 1495 1460 1461 1496
f 1070 1071 1496 1461
f 1237 1498 1497 1239
f 1238 1239 1072 1073
f 1072 1499 1076 1077
f 1075 1076 1501 1500
f 1502 1503 1077 1075
f 1500 1504 1079 1075
f 1078 1079 1504 1083
f 1110 1079 1080 1112
f 1479 1480 1506 1505
f 1381 1379 1505 1081
f 1504 1500 1508 1507
f 1376 1375 1508 1509
f 1376 1509 1510 1371
f 1511 1513 1512 1510
f 1146 1515 1514 1145
f 1516 1144 1145 1514
f 1517 1516 1514 1518
f 1069 1070 1458 1084
f 1519 1515 1512 1513
f 1374 1512 1515 1146
f 1415 1416 1427 1414
f 1459 1520 1253 1086
f 1458 1459 1086 1084
f 1450 1068 1066 1521
f 1522 1524 1168 1523
f 1087 1088 1525 1135
f 1092 1087 1135 1526
f 1527 1093 1094 1490
f 1528 1529 1172 1170
f 1173 1108 1109 1240
f 1240 1241 1174 1171
f 1530 1238 1073 1531
f 1532 1533 1524 1522
f 1100 1534 1525 1088
f 1099 1100 1088 1089
f 1089 1090 1175 1099
f 1174 1241 1101 1099
f 1173 1098 1108
f 1529 1098 1173 1172
f 1097 1098 1529 1535
f 1536 1237 1238 1530
f 1537 1536 1530 1538
f 1539 1540 1533 1532
f 1541 1539 1532 1534
f 1244 1539 1541 1101
f 1237 1536 1543 1542
f 1537 1544 1543 1536
f 1244 1545 1540 1539
f 1237 1542 1546 1498
f 1101 1096 1106 1244
f 1107 1242 1177 1176
f 1102 1543 1544 1177
f 1547 1549 1548 1167
f 1133 1166 1550 1132
f 1549 1552 1551 1548
f 1245 1555 1554 1553
f 1552 1111 1556 1551
f 1245 1553 1116 1117
f 1119 1246 1161 1118
f 1123 1121 1165 1557
f 1118 1126 1124 1120
f 1557 1559 1558 1058
f 1247 1248 1112 1560
f 1559 1247 1560 1558
f 1162 1126 1118 1161
f 1166 1133 1134 1561
f 1523 1168 1563 1562
f 1250 1523 1562 1249
f 1564 1562 1563 1565
f 1137 1564 1139 1136
f 1565 1138 1139 1564
f 1566 1568 1567 1138
f 1230 1252 920 921
f 1404 1144 1085 1253
f 1479 1505 1379 1382
f 1469 1470 1388 1389
f 1569 1113 1130 1169
f 1401 1408 1219 1386
f 1040 1038 1151 1024
f 1153 1025 22 67
f 1407 1154 1155 1405
f 27 24 1159 1278
f 68 1160 867 16
f 956 1468 1230 921
f 1129 1119 1122 1127
f 1161 1246 1256 1115
f 1121 1120 1124 1165
f 1120 1121 1122 1119
f 1116 1163 1161 1115
f 1164 1116 1553 1556
f 1554 1551 1556 1553
f 1550 1548 1551 1554
f 1548 1550 1166 1167
f 1561 1563 1168 1166
f 1563 1561 1569 1565
f 1140 1572 1571 1570
f 1172 1173 1171 1170
f 1538 1533 1540 1537
f 1537 1540 1545 1544
f 1176 1177 1544 1545
f 1138 1169 1486 1566
f 1158 1566 1486
f 1105 1096 1097 1573
f 1535 1527 1573 1097
f 1147 1148 1228 1229
f 1231 1180 1179 1178
f 1181 1575 1574 1257
f 1262 1577 1576 1261
f 1577 1579 1578 1576
f 1582 1574 1575 1583
f 1576 1578 1585 1584
f 1583 1587 1586 1582
f 1585 1588 1587 1583
f 1589 1591 1590 1579
f 1581 1592 1591 1589
f 1587 1593 1207 1586
f 1588 1594 1593 1587
f 1595 1590 1597 1596
f 1592 1208 1209 1591
f 858 1 19 900
f 12 69 1316 1215
f 70 1317 1316 69
f 70 40 1264 1317
f 1265 1184 43 44
f 72 71 1268 1269
f 46 72 1269 1335
f 46 1335 1273 1271
f 48 47 1270 1274
f 859 860 938 1361
f 59 25 973 1362
f 944 966 967 942
f 938 860 1274 937
f 25 3 859 973
f 4 861 862 53
f 945 1278 1032 955
f 946 865 866 1183
f 866 933 935 1275
f 75 1279 1276 50
f 1160 9 869 867
f 54 1153 868 73
f 67 16 868 1153
f 857 11 872 856
f 52 871 872 8
f 856 871 1279 75
f 11 73 868 869
f 1359 36 1216 939
f 985 984 1265 1212
f 1598 1283 983 986
f 986 1599 1598
f 1213 1363 1599 986
f 1336 965 1187 1281
f 1599 1282 1283 1598
f 1282 1599 1363 976
f 965 1336 976 964
f 989 990 997 998
f 1188 897 1189
f 1264 979 978 1317
f 1600 995 997 993
f 1600 1284 875 995
f 875 1006 1005 874
f 858 980 979 1264
f 1272 1291 886 937
f 882 1291 1272 1273
f 1266 884 882 1273
f 1365 932 1001 1290
f 961 882 883 1198
f 886 1291 1292 885
f 893 1193 885 1337
f 1311 1296 1199 1191
f 1310 1601 959 1357
f 1193 893 891 1192
f 1358 1303 891 1298
f 901 1303 1358 1313
f 925 1302 1303 1602
f 901 1318 1602 1303
f 1197 1195 1308 1603
f 1353 1309 1307 1355
f 1190 1199 883
f 1297 1295 1310 1357
f 1289 1000 1005
f 1007 1601 1310 1200
f 1310 1311 1191 1200
f 897 898 1189
f 960 1304 1305 959
f 1010 1263 1304 1314
f 1263 929 903 1304
f 1204 971 1334 1328
f 905 907 1206 904
f 947 909 907 905
f 911 909 947 910
f 933 934 912 910
f 909 911 914 1320
f 908 909 1320 1360
f 1321 1604 1360 1320
f 1321 1319 1326 951
f 1324 1323 951 1326
f 917 1324 956 921
f 1322 1323 918 970
f 917 921 919 916
f 1424 1331 1333 919
f 1605 916 919 1333
f 1260 1605 1333 1332
f 1606 1260 1332 1607
f 1607 924 922 1606
f 1318 1628 925 1602
f 1596 1597 1593 1594
f 1209 1207 1593 1597
f 916 1605 1182 33
f 1607 1332 1330 924
f 922 923 1210 34
f 1212 13 1215 1211
f 51 1277 929 38
f 903 929 927 902
f 968 1359 939 940
f 974 1361 938 936
f 947 906 926 1628
f 56 1331 1424 78
f 944 37 29
f 1326 1319 1048 958
f 1604 1321 951 949
f 925 906 904 1302
f 878 1189 898 981
f 892 1301 1298 891
f 1008 960 959 1601
f 1364 880 881 1287
f 944 29 18 966
f 1608 888 889 1347
f 1339 962 888 1608
f 1347 889 1300 1344
f 1354 1343 1342 1352
f 1346 1344 1343 1354
f 1356 1608 1347 1345
f 1349 1339 1608 1356
f 1348 1603 1308 1350
f 1350 1308 1309 1351
f 1354 1355 1307 1346
f 1195 1345 1346 1307
f 1349 1197 1603 1348
f 1287 1286 1002 1364
f 929 1277 1276 928
f 1202 1203 1293 1194
f 1214 1363 1213
f 953 1359 968 952
f 970 968 1334 1322
f 971 950 1322 1334
f 1205 1604 949 971
f 1206 1360 1604 1205
f 1361 1329 972 859
f 1293 1203 975 974
f 973 972 967 1362
f 976 977 978 964
f 984 983 987 988
f 992 990 989 987
f 964 896 897 963
f 897 1188 993 991
f 993 894 876 1600
f 1600 876 877 1284
f 874 999 996 873
f 1280 1364 1002 1003
f 1268 931 932 1267
f 931 1268 71 45
f 1267 932 1365 1288
f 1601 1007 1006 1008
f 899 1314 1315 1201
f 1314 899 900 1010
f 862 863 1367 1153
f 1040 1152 1366 1421
f 1039 1040 1421 1422
f 1253 1416 1034 1404
f 1370 1254 1144 1404
f 1378 1375 1018 1019
f 1381 1377 1020 1380
f 1609 1382 1022 1399
f 1384 1609 1399 1383
f 1385 1386 1219 1217
f 1220 1013 1385 1387
f 1384 1474 1477 1609
f 1477 1479 1382 1609
f 1405 1155 1372 1396
f 1398 1154 1407 1400
f 1398 1020 1018 1154
f 1402 1011 1383 1023
f 1401 1402 1023 1397
f 1474 1384 1012 1220
f 1369 1373 1374 1146
f 1395 1373 1369 1403
f 1017 1015 1403 1394
f 1419 1395 1403 1015
f 1014 1400 1407 1393
f 20 1219 1408 1014
f 1151 1150 68 30
f 30 22 1024 1151
f 1413 1417 1611 1610
f 1413 1028 1026 1417
f 1409 1027 1029 1030
f 954 955 1030 1031
f 1412 1031 1029 1411
f 1031 1412 1046 1043
f 1027 1028 1411 1029
f 1415 1410 1413 1033
f 1150 1418 1160 68
f 1016 1611 64 1420
f 1417 1418 64 1611
f 1611 1016 1035 1610
f 76 61 1421 1366
f 79 76 1366 1367
f 49 79 1367 863
f 1391 66 77 1390
f 65 1150 1038 62
f 1422 60 63 1039
f 1433 1255 1048 1047
f 1223 1433 1047 1222
f 1041 1221 915 913
f 1423 1425 1044 1045
f 1425 1423 1426 1429
f 1433 1223 1430 1432
f 1434 957 1225 1226
f 1466 1149 1227 1445
f 1443 1435 1431 1432
f 1441 1443 1432 1430
f 1438 1441 1430 1428
f 1612 1437 1429 1426
f 1520 1612 1426 1427
f 1612 1520 1459 1456
f 1437 1612 1456 1440
f 1447 1436 1435 1449
f 1466 1445 1446 1521
f 1447 1450 1521 1446
f 1613 1451 1452 1467
f 1462 1613 1467 1444
f 1454 1462 1444 1442
f 1457 1453 1439 1440
f 1455 1458 1070 1461
f 1453 1457 1460 1494
f 1454 1453 1494 1464
f 1613 1462 1463 1614
f 1451 1613 1614 1465
f 1450 1448 1233 1068
f 1449 1435 1467 1452
f 1472 1470 1230 1228
f 1220 1387 1473 1476
f 1051 1483 1476 1473
f 1231 1232 1472 1228
f 1050 1232 1053 1049
f 1482 1484 1056 1481
f 1485 1061 1178 1158
f 1061 1485 1064 1060
f 957 1434 1468 956
f 1067 1234 1179 1066
f 1236 1488 1489 1235
f 1614 1487 1488 1465
f 1493 1615 1463 1464
f 1615 1493 1490 1094
f 1487 1615 1094 1095
f 1463 1615 1487 1614
f 1492 1493 1464 1494
f 1495 1616 1491 1492
f 1616 1495 1496 1243
f 1071 1104 1243 1496
f 1103 1104 1071 1617
f 1069 1517 1617 1071
f 1617 1517 1518 1546
f 1103 1617 1546 1542
f 1498 1546 1518 1519
f 1519 1513 1497 1498
f 1499 1497 1513 1511
f 1239 1497 1499 1072
f 1076 1499 1511 1501
f 1074 1072 1077 1503
f 1110 1502 1075 1079
f 1618 1078 1083 1081
f 1080 1078 1618 1619
f 1112 1080 1619 1560
f 1506 1618 1081 1505
f 1619 1618 1506 1620
f 1560 1619 1620 1558
f 1057 1058 1558 1620
f 1480 1057 1620 1506
f 1377 1381 1081 1082
f 1507 1082 1083 1504
f 1082 1507 1378 1377
f 1375 1378 1507 1508
f 1500 1501 1509 1508
f 1510 1509 1501 1511
f 1374 1371 1510 1512
f 1514 1515 1519 1518
f 1084 1085 1144 1516
f 1521 1066 1180 1466
f 1253 1520 1427 1416
f 1069 1084 1516 1517
f 1488 1236 1233 1465
f 1531 1073 1074 1547
f 1621 1531 1547 1167
f 1525 1250 1137 1135
f 1087 1092 1090 1089
f 1570 1091 1092 1526
f 1143 1095 1093 1142
f 1528 1141 1535 1529
f 1538 1530 1531 1621
f 1534 1532 1522 1525
f 1491 1573 1527 1490
f 1573 1491 1616 1105
f 1534 1100 1101 1541
f 1522 1523 1250 1525
f 1102 1103 1542 1543
f 1242 1243 1104 1102
f 1243 1107 1105 1616
f 1107 1176 1545 1244
f 1242 1102 1177
f 1101 1109 1096
f 1549 1547 1074 1503
f 1132 1550 1554 1555
f 1552 1549 1503 1502
f 1110 1111 1552 1502
f 1556 1111 1112 1164
f 1245 1115 1113 1134
f 1130 1113 1114 1256
f 1256 1246 1129 1130
f 1247 1559 1165 1622
f 1622 1164 1112 1247
f 1557 1165 1559
f 1564 1137 1249 1562
f 1126 1162 1163 1125
f 1063 1123 1557 1058
f 1063 1128 1122 1123
f 1128 1131 1129 1127
f 1245 1134 1132 1555
f 1526 1139 1140 1570
f 1136 1139 1526 1135
f 1561 1134 1113 1569
f 1623 1567 1625 1624
f 1624 1625 1235 1489
f 1143 1624 1489 1095
f 1623 1624 1143 1626
f 1626 1143 1141 1528
f 1567 1568 1235 1625
f 1156 1234 1235 1568
f 1568 1566 1158 1156
f 1131 1486 1169 1130
f 1567 1623 1572 1138
f 1571 1572 1623 1626
f 1251 1390 78 1424
f 77 80 78 1390
f 1390 1251 1389 1218
f 1252 1469 1389 1251
f 1152 1040 1024 1025
f 1157 1179 1234 1156
f 1170 1571 1626 1528
f 1610 1035 1033 1413
f 1105 1106 1096
f 1622 1125 1163 1164
f 1165 1124 1125 1622
f 1565 1569 1169 1138
f 1138 1572 1140
f 1570 1571 1170 1091
f 1091 1171 1174 1090
f 1167 1168 1524 1621
f 1621 1524 1533 1538
f 1178 1157 1158
f 1527 1535 1141 1093
f 1180 1231 1228 1148
f 1261 1182 1605 1260
f 34 1258 1606 922
f 1262 1260 1606 1258
f 1182 1584 1575 1181
f 1261 1576 1584 1182
f 1258 1627 1577 1262
f 1259 1580 1627 1258
f 1627 1589 1579 1577
f 1580 1581 1589 1627
f 1584 1585 1583 1575
f 1578 1595 1588 1585
f 1579 1590 1595 1578
f 1588 1595 1596 1594
f 1591 1209 1597 1590
f 959 1305 1306 1357
f 1313 1358 1298 1299
f 1306 890 1297 1357
f 1306 1313 1299 890
f 1037 1629 1393 1392
f 1405 1396 1406 1392
f 1407 1405 1392 1393
f 1629 1630 1014 1393
f 1036 1037 1392 1406
f 1396 1395 1419 1406
f 64 32 1036 1420
f 1406 1419 1420 1036
f 852 1037 1036 32
f 1037 852 31 23 1629
f 23 21 1630 1629
