# BrainViewer — regione: other_midline
# generato da tools/split_lobes.py, non modificare a mano
o other_midline
v 0.018478 0.638519 -0.156668
v 0.018600 0.621643 -0.150187
v 0.017303 0.610336 -0.144136
v 0.001419 0.677307 -0.181135
v 0.002686 0.692459 -0.174834
v 0.009583 0.725586 0.104097
v 0.010529 0.733414 0.099652
v 0.010056 0.732407 0.104198
v 0.009201 0.725800 0.108173
v 0.008270 0.722061 0.143156
v 0.006958 0.704330 0.150680
v 0.007706 0.709122 0.132809
v 0.008865 0.717361 0.134002
v -0.001190 0.711166 0.189610
v -0.006332 0.725723 0.190456
v -0.006180 0.713211 0.193143
v -0.002136 0.709381 0.192097
v -0.005051 0.660782 0.195767
v -0.000717 0.660416 0.191536
v -0.002319 0.661224 0.194796
v 0.019302 0.727005 -0.039488
v 0.017899 0.741531 -0.023651
v 0.017746 0.734375 -0.018818
v 0.018997 0.724823 -0.035110
v -0.004288 0.653046 0.178396
v -0.004410 0.666901 0.172797
v 0.004623 0.670944 0.175511
v 0.001282 0.655701 0.182258
v 0.018768 0.744507 -0.033676
v 0.018219 0.750214 -0.026275
v 0.017502 0.747696 -0.019534
v 0.018295 0.744644 -0.027989
v 0.010712 0.737457 0.098680
v 0.010345 0.735138 0.103154
v -0.004181 0.836990 0.043801
v 0.016449 0.756287 -0.110317
v 0.020844 0.720291 -0.132315
v 0.018311 0.726746 -0.140501
v 0.015793 0.756836 -0.116234
v 0.011551 0.759445 0.091348
v 0.011810 0.762329 0.073953
v 0.012817 0.771957 0.070994
v 0.012344 0.767548 0.086491
v 0.010696 0.744080 0.109488
v 0.010086 0.734955 0.106443
v 0.010391 0.737946 0.104824
v 0.010849 0.746277 0.106904
v 0.020065 0.748001 -0.047916
v 0.021301 0.746094 -0.068078
v 0.020187 0.761749 -0.050582
v 0.020172 0.755219 -0.045522
v -0.000412 0.796005 -0.082069
v 0.000000 0.752014 0.168937
v 0.005112 0.759354 0.153320
v 0.002289 0.770599 0.155627
v -0.000580 0.758392 0.168456
v 0.019058 0.630768 -0.127352
v 0.016785 0.650070 -0.100542
v 0.016022 0.623489 -0.122324
v 0.018341 0.625092 -0.127670
v 0.022415 0.643784 -0.136202
v -0.001648 0.598434 -0.131689
v 0.002289 0.661469 -0.066296
v 0.000931 0.680679 -0.042596
v 0.003128 0.612610 -0.111591
v 0.003220 0.640228 -0.090158
v 0.017471 0.678009 -0.165976
v 0.019684 0.669495 -0.160471
v 0.010254 0.675400 -0.178202
v 0.024658 0.690933 -0.117795
v 0.024628 0.699066 -0.123259
v 0.023346 0.724274 -0.097344
v 0.023590 0.714691 -0.092606
v 0.014023 0.779648 -0.079618
v 0.017151 0.755127 -0.104525
v 0.015152 0.804276 -0.001676
v 0.013138 0.815521 0.028979
v 0.015121 0.803635 0.031615
v 0.016556 0.795471 0.000732
v 0.011383 0.815643 0.054815
v 0.009735 0.811264 0.075171
v 0.012009 0.797867 0.073739
v 0.013412 0.803802 0.055365
v 0.008560 0.802567 0.096999
v 0.007690 0.790924 0.117367
v 0.009933 0.776810 0.112756
v 0.010803 0.788071 0.094335
v 0.009537 0.727203 0.124780
v 0.008270 0.717468 0.114269
v 0.009338 0.728073 0.111150
v 0.010269 0.737457 0.116731
v -0.002197 0.805481 -0.060673
v 0.012894 0.792252 -0.058211
v 0.013901 0.686523 -0.171424
v 0.004547 0.711395 -0.162289
v 0.016922 0.703354 -0.158718
v 0.014481 0.703049 -0.031726
v 0.014114 0.708954 -0.013316
v 0.009781 0.701782 -0.009690
v 0.009018 0.695068 -0.029076
v 0.015640 0.751648 0.005425
v 0.013947 0.757645 0.033296
v 0.014923 0.748062 0.032967
v 0.016098 0.743515 0.007167
v 0.013962 0.715775 0.010377
v 0.010544 0.708420 0.013500
v 0.015045 0.693970 -0.049787
v 0.018356 0.700729 -0.052046
v 0.017410 0.710907 -0.033549
v 0.019821 0.736176 -0.045816
v 0.021286 0.725082 -0.063444
v 0.021683 0.733322 -0.067854
v 0.020142 0.741821 -0.049545
v 0.018738 0.762054 -0.026014
v 0.019012 0.772995 -0.028992
v 0.017090 0.784378 0.001823
v 0.016754 0.772263 0.002650
v 0.009720 0.713470 0.076484
v -0.001968 0.707764 0.078907
v -0.001343 0.707703 0.060064
v 0.010574 0.713989 0.057558
v 0.003128 0.765198 -0.116274
v 0.004684 0.800705 0.119038
v 0.005737 0.811874 0.097845
v 0.001144 0.792053 0.140389
v -0.000275 0.775635 0.159042
v 0.003662 0.785736 0.139030
v -0.004257 0.679260 0.160343
v 0.006073 0.684006 0.162961
v 0.006287 0.693939 0.147750
v -0.003952 0.688644 0.145837
v -0.003632 0.697006 0.131294
v 0.006393 0.702408 0.132163
v 0.020905 0.716629 -0.059635
v 0.019989 0.710678 -0.052073
v 0.021240 0.689301 -0.078620
v 0.022400 0.697098 -0.082643
v -0.003128 0.811981 -0.044106
v 0.021393 0.637772 -0.130205
v 0.022217 0.643234 -0.131403
v -0.006592 0.739456 0.187535
v -0.006561 0.737701 0.187709
v 0.013596 0.762177 0.033396
v 0.015503 0.755707 0.004630
v 0.011444 0.756927 0.074920
v 0.011703 0.752777 0.073524
v 0.012619 0.756973 0.055168
v 0.012207 0.761246 0.055824
v 0.011597 0.735291 0.088649
v 0.013092 0.737167 0.072993
v 0.012543 0.745926 0.072362
v 0.011520 0.742569 0.086565
v -0.006622 0.746231 0.183774
v -0.004181 0.747604 0.179347
v -0.002731 0.759460 0.172822
v -0.006653 0.760086 0.174974
v -0.005920 0.809494 0.119089
v -0.006317 0.794708 0.141161
v 0.020309 0.660522 -0.155608
v 0.021805 0.652023 -0.151088
v 0.010788 0.667862 -0.172830
v 0.014984 0.661377 -0.166143
v 0.007782 0.603836 -0.131726
v 0.019318 0.682297 -0.075837
v 0.016464 0.732330 0.007119
v 0.015686 0.736877 0.032903
v 0.015350 0.728424 0.033696
v 0.015839 0.723236 0.007654
v 0.014542 0.737961 0.054566
v 0.012695 0.728363 0.073942
v 0.014282 0.729782 0.055452
v 0.009750 0.718582 0.093904
v 0.011612 0.720566 0.074456
v 0.010712 0.725677 0.092714
v 0.013763 0.747971 0.053906
v 0.014267 0.790451 0.053517
v 0.013229 0.783722 0.071264
v 0.013596 0.776810 0.053389
v 0.008209 0.825989 0.034619
v 0.003922 0.833939 0.041323
v 0.004318 0.831100 0.056187
v 0.007889 0.824860 0.053847
v 0.015717 0.676453 -0.072322
v 0.009232 0.686295 -0.047055
v 0.009842 0.669861 -0.069133
v 0.006775 0.708710 0.114876
v 0.008255 0.712326 0.095406
v 0.015732 0.792877 -0.032391
v 0.012695 0.801193 -0.035908
v 0.012878 0.809998 -0.006801
v 0.003616 0.834274 0.031448
v 0.008011 0.823578 0.010492
v 0.006927 0.776611 0.134955
v 0.008102 0.748917 0.142597
v 0.009232 0.765152 0.128961
v -0.004837 0.742310 0.181858
v -0.000015 0.746750 0.169581
v 0.000793 0.708588 0.182642
v -0.000488 0.726959 0.174053
v -0.002762 0.732498 0.179915
v -0.000946 0.713486 0.186771
v 0.000824 0.659164 0.188766
v 0.019699 0.729492 -0.044239
v 0.017853 0.783203 -0.030517
v 0.018723 0.771118 -0.054207
v 0.019485 0.756714 -0.074937
v 0.021530 0.735016 -0.101386
v 0.021912 0.664780 -0.104566
v 0.019913 0.659882 -0.100983
v 0.020203 0.635895 -0.126063
v 0.020462 0.693344 -0.153691
v 0.023285 0.707275 -0.128607
v 0.022675 0.683334 -0.148527
v 0.010422 0.646408 -0.093808
v 0.010422 0.618790 -0.117588
v 0.023880 0.675903 -0.143382
v 0.024033 0.669403 -0.137858
v -0.006622 0.740921 0.187008
v -0.002625 0.706863 0.097627
v 0.000153 0.690033 -0.025668
v 0.011337 0.758896 0.107262
v 0.010971 0.748505 0.103669
v 0.011078 0.751724 0.093913
v -0.005783 0.691208 0.196508
v -0.004898 0.828110 0.075770
v -0.005417 0.820419 0.096894
v 0.004181 0.825760 0.075524
v -0.004425 0.833664 0.057158
v 0.003922 0.681747 0.184434
v 0.005096 0.675110 0.179425
v 0.006134 0.691238 0.167255
v 0.003342 0.703201 0.173975
v 0.003235 0.717010 0.163933
v 0.005234 0.731552 0.154481
v 0.012543 0.649689 -0.161954
v 0.010956 0.605438 -0.138886
v -0.003922 0.835571 0.029271
v -0.003708 0.829407 0.005954
v -0.003616 0.820999 -0.018702
v 0.009827 0.737106 0.133302
v -0.000870 0.689285 0.194819
v 0.001984 0.688980 0.190798
v 0.017548 0.725449 -0.017406
v 0.018677 0.718002 -0.035130
v -0.003540 0.816971 -0.029461
v 0.001328 0.657043 0.184327
v 0.018616 0.740372 -0.032102
v 0.018967 0.740967 -0.036055
v 0.010635 0.740875 0.100970
v 0.005249 0.735931 -0.143633
v 0.012238 0.774704 0.089532
v 0.022293 0.645676 -0.148100
v 0.023407 0.659210 -0.136233
v 0.023926 0.676865 -0.116215
v 0.023026 0.705795 -0.087584
v 0.016739 0.768021 -0.077501
v 0.019348 0.744278 -0.104949
v 0.015564 0.791794 0.031509
v 0.010574 0.749969 0.122250
v 0.016220 0.782455 -0.056195
v -0.000458 0.696487 -0.006155
v 0.013809 0.721008 0.035359
v 0.010864 0.712967 0.037679
v -0.000931 0.706192 0.039950
v -0.000732 0.702225 0.016793
v 0.016525 0.716904 -0.015797
v 0.014862 0.778534 0.032001
v 0.013947 0.767349 0.032797
v 0.015854 0.760849 0.003993
v 0.012985 0.721924 0.055813
v 0.006775 0.820251 0.075277
v 0.003357 0.817856 0.096969
v 0.002213 0.806854 0.118882
v -0.003204 0.703506 0.115561
v 0.023026 0.672180 -0.108589
v -0.006393 0.731277 0.189199
v -0.005600 0.737656 0.185007
v 0.012527 0.766083 0.055270
v 0.011063 0.746658 0.089847
v -0.006577 0.777802 0.160610
v 0.010834 0.817047 0.002711
v 0.002121 0.742554 0.163728
v -0.013382 0.684158 -0.177850
v -0.015015 0.695801 -0.172798
v -0.014786 0.725510 0.190445
v -0.014481 0.712997 0.193112
v -0.013092 0.652847 0.178621
v -0.013443 0.666687 0.173004
v -0.018066 0.836639 0.044146
v -0.016693 0.661697 -0.065826
v -0.016983 0.680649 -0.042260
v -0.017944 0.613434 -0.110846
v -0.016830 0.640823 -0.089560
v -0.019104 0.795654 -0.081412
v -0.020157 0.805084 -0.060124
v -0.015701 0.712845 -0.162426
v -0.014786 0.707489 0.079110
v -0.014954 0.707413 0.060308
v -0.016632 0.765472 -0.115732
v -0.013763 0.679047 0.160571
v -0.014023 0.688416 0.146068
v -0.014282 0.696762 0.131493
v -0.020493 0.811554 -0.043587
v -0.015106 0.739258 0.187720
v -0.015060 0.737488 0.187864
v -0.015274 0.746033 0.184076
v -0.015594 0.759888 0.175375
v -0.016922 0.809235 0.119439
v -0.016495 0.794464 0.141637
v -0.015137 0.740738 0.187284
v -0.014664 0.706604 0.097825
v -0.017075 0.689804 -0.025453
v -0.013977 0.690994 0.196513
v -0.017578 0.827805 0.076080
v -0.017288 0.820145 0.097202
v -0.017807 0.833344 0.057492
v -0.018387 0.835205 0.029635
v -0.019089 0.828995 0.006348
v -0.019958 0.820602 -0.018297
v -0.013260 0.660583 0.195865
v -0.020325 0.816574 -0.029038
v -0.015564 0.736603 -0.142977
v -0.019196 0.596924 -0.128896
v -0.016876 0.696121 -0.005985
v -0.015396 0.705902 0.040174
v -0.016159 0.701920 0.017040
v -0.014496 0.703262 0.115796
v -0.014908 0.731064 0.189242
v -0.016037 0.777588 0.161148
v -0.054947 0.641724 -0.155843
v -0.053787 0.632233 -0.143792
v -0.053711 0.618149 -0.138968
v -0.028412 0.679993 -0.174688
v -0.033325 0.694260 -0.172060
v -0.039688 0.724426 0.104228
v -0.041031 0.732117 0.100304
v -0.040466 0.731155 0.104761
v -0.039276 0.724655 0.108317
v -0.037888 0.720978 0.143352
v -0.035706 0.703339 0.150721
v -0.036804 0.708084 0.132864
v -0.038345 0.716263 0.134065
v -0.027710 0.710571 0.189719
v -0.023239 0.725342 0.190583
v -0.022812 0.712830 0.193217
v -0.026672 0.708817 0.192173
v -0.021469 0.660400 0.195711
v -0.025787 0.659821 0.191431
v -0.024231 0.660721 0.194719
v -0.054031 0.726212 -0.039412
v -0.053360 0.739227 -0.021808
v -0.052795 0.732346 -0.017682
v -0.053711 0.723877 -0.035193
v -0.021896 0.652634 0.178396
v -0.022461 0.666489 0.172797
v -0.031677 0.670105 0.175511
v -0.027588 0.655045 0.182307
v -0.054428 0.742386 -0.031683
v -0.054108 0.747574 -0.023683
v -0.053146 0.745041 -0.017029
v -0.053955 0.742294 -0.025906
v -0.041412 0.736099 0.099663
v -0.040894 0.733841 0.103916
v -0.031952 0.836288 0.043944
v -0.049713 0.756760 -0.109418
v -0.052261 0.722397 -0.130992
v -0.049561 0.728424 -0.139195
v -0.048691 0.757385 -0.115322
v -0.043320 0.757690 0.093884
v -0.043869 0.760284 0.077016
v -0.045334 0.769638 0.074700
v -0.044510 0.765564 0.089603
v -0.041595 0.742691 0.110809
v -0.040604 0.733673 0.107178
v -0.041061 0.736618 0.105761
v -0.041885 0.744858 0.108358
v -0.055786 0.746475 -0.045929
v -0.056183 0.746140 -0.066708
v -0.056595 0.759781 -0.048031
v -0.056305 0.753174 -0.043049
v -0.037582 0.795364 -0.081588
v -0.030869 0.751343 0.169751
v -0.036392 0.758377 0.154635
v -0.034073 0.769760 0.157122
v -0.030579 0.757751 0.169473
v -0.054306 0.633499 -0.125691
v -0.050323 0.652679 -0.100032
v -0.051620 0.625885 -0.120836
v -0.053986 0.627762 -0.126044
v -0.056839 0.649811 -0.135145
v -0.035477 0.602631 -0.129381
v -0.035675 0.661743 -0.065771
v -0.034897 0.680405 -0.042262
v -0.039078 0.614105 -0.110631
v -0.036896 0.641190 -0.089392
v -0.050766 0.680542 -0.164368
v -0.053986 0.671646 -0.159919
v -0.039795 0.679474 -0.172204
v -0.056488 0.695847 -0.117336
v -0.056259 0.703506 -0.122429
v -0.055893 0.727173 -0.096717
v -0.056137 0.717987 -0.092355
v -0.050522 0.778549 -0.078059
v -0.050644 0.755829 -0.103621
v -0.052673 0.802063 -0.000290
v -0.049026 0.813644 0.029956
v -0.050262 0.801392 0.033339
v -0.053452 0.792999 0.002681
v -0.046188 0.813904 0.055920
v -0.044083 0.809616 0.076524
v -0.045731 0.795914 0.075953
v -0.047653 0.801758 0.057179
v -0.042297 0.801025 0.098732
v -0.040695 0.789536 0.119422
v -0.042297 0.775223 0.115558
v -0.043854 0.786270 0.096970
v -0.039536 0.726044 0.125084
v -0.037918 0.716400 0.114345
v -0.039490 0.726913 0.111431
v -0.040802 0.736176 0.117590
v -0.037903 0.804642 -0.060355
v -0.051651 0.790665 -0.056940
v -0.046097 0.689362 -0.168928
v -0.037231 0.713165 -0.162441
v -0.049332 0.705261 -0.157734
v -0.048737 0.702362 -0.032358
v -0.048187 0.707611 -0.013636
v -0.043655 0.700577 -0.009868
v -0.043198 0.694366 -0.029313
v -0.050140 0.749115 0.008577
v -0.046860 0.755051 0.036727
v -0.047531 0.745758 0.035630
v -0.050232 0.741318 0.009588
v -0.046951 0.714462 0.010479
v -0.043213 0.707245 0.013607
v -0.049088 0.694351 -0.050500
v -0.052399 0.701309 -0.053011
v -0.051819 0.710175 -0.034296
v -0.054901 0.735229 -0.044821
v -0.055237 0.726181 -0.063592
v -0.055817 0.734299 -0.067430
v -0.055450 0.740784 -0.048090
v -0.055176 0.758942 -0.022677
v -0.056091 0.769730 -0.025546
v -0.053314 0.781570 0.004679
v -0.052032 0.768875 0.007094
v -0.039566 0.712311 0.076576
v -0.027603 0.707153 0.078959
v -0.028580 0.707062 0.060122
v -0.040802 0.712769 0.057664
v -0.036362 0.765472 -0.115743
v -0.038132 0.799515 0.120553
v -0.039902 0.810562 0.099051
v -0.034027 0.791183 0.141665
v -0.031723 0.774933 0.160318
v -0.036255 0.784714 0.140823
v -0.023254 0.678833 0.160361
v -0.033783 0.683075 0.163009
v -0.034561 0.692993 0.147750
v -0.024094 0.688187 0.145862
v -0.024933 0.696503 0.131294
v -0.035172 0.701447 0.132220
v -0.054810 0.717651 -0.060076
v -0.054047 0.711243 -0.052840
v -0.054276 0.692032 -0.079315
v -0.055161 0.700348 -0.083171
v -0.037674 0.811066 -0.043837
v -0.056183 0.641983 -0.129267
v -0.056656 0.648575 -0.130663
v -0.023621 0.739105 0.187856
v -0.023575 0.737335 0.188032
v -0.046677 0.759445 0.037164
v -0.050186 0.753021 0.008090
v -0.043243 0.755020 0.077613
v -0.043350 0.750916 0.075950
v -0.044739 0.754745 0.058233
v -0.044495 0.758942 0.059175
v -0.042313 0.733887 0.089499
v -0.044037 0.735580 0.074134
v -0.043884 0.744171 0.074311
v -0.042572 0.741028 0.088060
v -0.023911 0.745880 0.184264
v -0.026443 0.747131 0.179907
v -0.028458 0.758926 0.173729
v -0.024551 0.759735 0.175783
v -0.027939 0.808899 0.119691
v -0.026672 0.794189 0.142011
v -0.055374 0.663040 -0.155479
v -0.056671 0.655518 -0.150471
v -0.042953 0.669830 -0.170902
v -0.050903 0.660812 -0.167760
v -0.044525 0.607956 -0.129072
v -0.052567 0.684631 -0.076662
v -0.050201 0.730591 0.008311
v -0.047882 0.734985 0.034447
v -0.047195 0.726868 0.034255
v -0.049210 0.721878 0.007755
v -0.045853 0.736176 0.055981
v -0.043243 0.727005 0.074241
v -0.045212 0.728256 0.056000
v -0.039642 0.717422 0.093969
v -0.041794 0.719299 0.074569
v -0.040939 0.724457 0.092855
v -0.045517 0.745926 0.056263
v -0.047928 0.788040 0.056406
v -0.046295 0.781464 0.074513
v -0.046616 0.774155 0.057370
v -0.044250 0.824463 0.035287
v -0.039993 0.832733 0.041732
v -0.039825 0.829865 0.056726
v -0.043152 0.823380 0.054638
v -0.049103 0.678177 -0.072824
v -0.043228 0.686340 -0.047281
v -0.043259 0.670746 -0.068916
v -0.036011 0.707703 0.114935
v -0.037842 0.711243 0.095482
v -0.054596 0.790619 -0.030840
v -0.052338 0.799301 -0.034888
v -0.051208 0.808105 -0.005915
v -0.040161 0.833084 0.031808
v -0.045532 0.822037 0.011065
v -0.039124 0.775406 0.137191
v -0.038971 0.747787 0.143637
v -0.040939 0.763824 0.131028
v -0.025528 0.741867 0.182284
v -0.030609 0.746063 0.170123
v -0.029602 0.707886 0.182659
v -0.029190 0.726303 0.174371
v -0.027145 0.731964 0.180176
v -0.028076 0.712860 0.186865
v -0.027283 0.658508 0.188669
v -0.054459 0.728867 -0.043922
v -0.055862 0.780487 -0.028153
v -0.055664 0.769180 -0.051821
v -0.054642 0.756592 -0.073384
v -0.054199 0.737198 -0.100512
v -0.054810 0.669037 -0.104865
v -0.053131 0.663086 -0.100940
v -0.055023 0.639557 -0.125028
v -0.052521 0.696014 -0.152004
v -0.054764 0.710815 -0.127463
v -0.055069 0.687164 -0.147088
v -0.044006 0.647614 -0.092787
v -0.046173 0.620758 -0.116403
v -0.056503 0.680573 -0.142204
v -0.056885 0.674438 -0.137017
v -0.023666 0.740570 0.187378
v -0.026703 0.706299 0.097672
v -0.034256 0.689468 -0.025589
v -0.042938 0.757324 0.109464
v -0.042130 0.747025 0.105342
v -0.042465 0.750122 0.095920
v -0.022171 0.690826 0.196534
v -0.030243 0.827438 0.076029
v -0.029144 0.819778 0.097301
v -0.039215 0.824524 0.076235
v -0.031189 0.832977 0.057328
v -0.031448 0.680923 0.184434
v -0.032318 0.674240 0.179425
v -0.034180 0.690308 0.167255
v -0.031921 0.702393 0.173996
v -0.032501 0.716187 0.164046
v -0.035217 0.730606 0.155051
v -0.050476 0.649017 -0.164313
v -0.047363 0.611191 -0.135008
v -0.032822 0.834824 0.029429
v -0.034424 0.828598 0.006127
v -0.036240 0.820145 -0.018526
v -0.040207 0.735901 0.134007
v -0.026993 0.688690 0.194819
v -0.029846 0.688248 0.190798
v -0.052185 0.723831 -0.017282
v -0.053192 0.717255 -0.035627
v -0.037003 0.816071 -0.029260
v -0.027695 0.656357 0.184275
v -0.054077 0.738419 -0.030487
v -0.054443 0.739151 -0.034446
v -0.041473 0.739487 0.102154
v -0.036362 0.736938 -0.142844
v -0.044693 0.772690 0.092934
v -0.056763 0.650497 -0.145873
v -0.056839 0.664185 -0.135416
v -0.056168 0.682007 -0.116089
v -0.055634 0.709152 -0.087727
v -0.052582 0.767578 -0.076118
v -0.052231 0.745743 -0.103990
v -0.050140 0.789169 0.034244
v -0.041641 0.748627 0.123528
v -0.053955 0.780411 -0.053970
v -0.033249 0.695694 -0.006149
v -0.045242 0.719666 0.035475
v -0.041977 0.711761 0.037788
v -0.029877 0.705505 0.040025
v -0.031601 0.701508 0.016856
v -0.050812 0.715515 -0.016206
v -0.048752 0.775604 0.035813
v -0.047226 0.764450 0.036909
v -0.050705 0.757935 0.007810
v -0.043564 0.720566 0.055981
v -0.041550 0.818863 0.076194
v -0.037811 0.816696 0.097836
v -0.035950 0.805832 0.119967
v -0.025787 0.702988 0.115600
v -0.055634 0.676392 -0.108486
v -0.023453 0.730896 0.189396
v -0.024536 0.737244 0.185282
v -0.045029 0.763641 0.058949
v -0.042267 0.745087 0.091567
v -0.025513 0.777374 0.161498
v -0.048676 0.815292 0.003444
v -0.032578 0.741760 0.164377
v -0.005783 0.641342 -0.166184
v -0.003525 0.661545 -0.174894
v -0.002731 0.615265 -0.156774
v -0.005737 0.602631 -0.144033
v -0.025894 0.662582 -0.173735
v -0.032471 0.641205 -0.167895
v -0.033829 0.620010 -0.154408
v -0.031876 0.607178 -0.141646
v -0.045719 0.393345 0.114582
v -0.047787 0.397499 0.121247
v -0.045713 0.401626 0.127926
v -0.031002 0.387397 0.105198
v -0.039825 0.389796 0.108947
v -0.012476 0.386510 0.103907
v -0.030989 0.407392 0.137411
v -0.012476 0.408155 0.138774
v -0.039816 0.405100 0.133602
v -0.070906 0.390060 0.125886
v -0.067085 0.382385 0.113571
v -0.056196 0.375829 0.103158
v -0.039892 0.371393 0.096232
v -0.012476 0.369755 0.093846
v -0.012476 0.409747 0.158272
v -0.039871 0.408342 0.155754
v -0.056179 0.404110 0.148714
v -0.086407 0.378810 0.132894
v -0.081415 0.368779 0.116805
v -0.045887 0.354424 0.094149
v -0.012476 0.352281 0.091031
v -0.012476 0.404533 0.175208
v -0.081404 0.388779 0.149018
v -0.067076 0.397686 0.138226
v -0.086523 0.354607 0.123790
v -0.067186 0.360217 0.103199
v -0.071123 0.345337 0.109063
v -0.048069 0.339067 0.099267
v -0.048037 0.391319 0.183444
v -0.045858 0.402698 0.171918
v -0.067163 0.397168 0.162721
v -0.071098 0.385332 0.173489
v -0.086628 0.352049 0.149552
v -0.091927 0.365462 0.141205
v -0.081635 0.342020 0.133463
v -0.067406 0.333458 0.119858
v -0.046108 0.327662 0.110807
v -0.012476 0.336745 0.095893
v -0.012476 0.325520 0.107690
v -0.081623 0.362016 0.165676
v -0.086510 0.376252 0.158657
v -0.071314 0.340611 0.156667
v -0.067493 0.332935 0.144352
v -0.040302 0.321946 0.127012
v -0.012476 0.320303 0.124627
v -0.056587 0.354660 0.179496
v -0.067385 0.370402 0.179380
v -0.067484 0.348239 0.169007
v -0.046253 0.328734 0.154800
v -0.056604 0.326379 0.133939
v -0.040359 0.325189 0.149164
v -0.031536 0.322789 0.145415
v -0.012476 0.321899 0.144124
v -0.012476 0.343543 0.178992
v -0.012476 0.360298 0.189053
v -0.040279 0.358893 0.186535
v -0.031525 0.342782 0.177629
v -0.040350 0.340492 0.173819
v -0.046247 0.337019 0.168143
v -0.048319 0.332889 0.161464
v -0.012476 0.330063 0.163215
v -0.012476 0.393305 0.187005
v -0.012476 0.377772 0.191867
v -0.046078 0.375939 0.188577
v 0.020767 0.393345 0.114582
v 0.022837 0.397499 0.121247
v 0.020761 0.401626 0.127926
v 0.006050 0.387397 0.105198
v 0.014874 0.389796 0.108947
v 0.006039 0.407392 0.137411
v 0.014864 0.405100 0.133602
v 0.045954 0.390060 0.125886
v 0.042133 0.382385 0.113571
v 0.031244 0.375829 0.103158
v 0.014942 0.371393 0.096232
v 0.014921 0.408342 0.155754
v 0.031227 0.404110 0.148714
v 0.061457 0.378810 0.132894
v 0.056463 0.368779 0.116805
v 0.020937 0.354424 0.094149
v 0.056452 0.388779 0.149018
v 0.042126 0.397686 0.138226
v 0.061571 0.354607 0.123790
v 0.042234 0.360217 0.103199
v 0.046171 0.345337 0.109063
v 0.023117 0.339067 0.099267
v 0.023087 0.391319 0.183444
v 0.020906 0.402698 0.171918
v 0.042212 0.397168 0.162721
v 0.046146 0.385332 0.173489
v 0.061676 0.352049 0.149552
v 0.066975 0.365462 0.141205
v 0.056683 0.342020 0.133463
v 0.042456 0.333458 0.119858
v 0.021156 0.327662 0.110807
v 0.056671 0.362016 0.165676
v 0.061558 0.376252 0.158657
v 0.046362 0.340611 0.156667
v 0.042543 0.332935 0.144352
v 0.015350 0.321946 0.127012
v 0.031635 0.354660 0.179496
v 0.042433 0.370402 0.179380
v 0.042532 0.348239 0.169007
v 0.021301 0.328734 0.154800
v 0.031652 0.326379 0.133939
v 0.015408 0.325189 0.149164
v 0.006584 0.322789 0.145415
v 0.015327 0.358893 0.186535
v 0.006573 0.342782 0.177629
v 0.015398 0.340492 0.173819
v 0.021296 0.337019 0.168143
v 0.023369 0.332889 0.161464
v 0.021128 0.375939 0.188577
v -0.020786 0.400401 0.121744
v -0.020788 0.398331 0.118409
v -0.017107 0.396843 0.116063
v -0.012476 0.396622 0.115740
v -0.012476 0.402033 0.124456
v -0.017105 0.401843 0.124116
v -0.004166 0.398331 0.118409
v -0.004168 0.400401 0.121744
v -0.007845 0.396843 0.116063
v -0.007849 0.401843 0.124116
f 6 9 8 7
f 10 13 12 11
f 14 17 16 15
f 21 24 23 22
f 25 28 27 26
f 29 32 31 30
f 8 34 33 7
f 36 39 38 37
f 40 43 42 41
f 44 47 46 45
f 48 51 50 49
f 53 56 55 54
f 57 60 59 58
f 70 73 72 71
f 36 75 74 52
f 76 79 78 77
f 80 83 82 81
f 84 87 86 85
f 88 91 90 89
f 74 93 92 52
f 94 96 95 5
f 97 100 99 98
f 101 104 103 102
f 99 106 105 98
f 97 109 108 107
f 110 113 112 111
f 114 117 116 115
f 118 121 120 119
f 123 124 84 85
f 125 127 55 126
f 27 129 128 26
f 130 133 132 131
f 134 137 136 135
f 143 144 101 102
f 145 148 147 146
f 149 152 151 150
f 153 156 155 154
f 136 164 108 135
f 165 168 167 166
f 169 171 170 150
f 172 174 170 173
f 103 175 147 102
f 176 178 42 177
f 179 182 181 180
f 183 185 184 107
f 172 187 186 89
f 76 190 189 188
f 191 192 179 180
f 193 195 194 54
f 53 197 196 154
f 198 201 200 199
f 134 203 110 111
f 204 205 50 115
f 206 207 72 49
f 139 210 209 208
f 211 213 212 37
f 160 217 216 159
f 196 218 153 154
f 40 223 222 221
f 225 228 181 227
f 229 232 231 230
f 233 234 10 11
f 8 9 90 45
f 90 9 6 89
f 12 13 88 89
f 88 13 10 240
f 16 17 241 224
f 241 17 14 242
f 19 20 241 242
f 241 20 18 224
f 23 24 244 243
f 244 24 21 135
f 27 28 246 230
f 31 32 247 22
f 247 32 29 248
f 33 34 46 249
f 46 34 8 45
f 237 191 180 35
f 38 39 122 250
f 122 39 36 52
f 42 43 251 177
f 251 43 40 221
f 46 47 222 249
f 222 47 44 221
f 50 51 114 115
f 114 51 48 30
f 55 56 155 126
f 155 56 53 154
f 253 61 254
f 72 73 112 49
f 112 73 255 111
f 255 73 70 254
f 74 75 257 256
f 257 75 36 37
f 78 79 116 258
f 116 79 204 115
f 204 79 76 188
f 82 83 176 177
f 176 83 78 258
f 78 83 80 77
f 86 87 251 221
f 251 87 82 177
f 82 87 84 81
f 90 91 44 45
f 44 91 259 221
f 259 91 88 240
f 92 93 189 138
f 189 93 260 188
f 260 93 74 256
f 95 96 38 250
f 38 96 211 37
f 211 96 94 67
f 99 100 220 261
f 220 100 184 64
f 184 100 97 107
f 103 104 165 166
f 165 104 23 243
f 23 104 101 22
f 105 106 263 262
f 263 106 265 264
f 265 106 99 261
f 108 109 244 135
f 244 109 266 243
f 266 109 97 98
f 112 113 48 49
f 48 113 29 30
f 29 113 110 248
f 116 117 267 258
f 267 117 269 268
f 269 117 114 30
f 120 121 263 264
f 263 121 270 262
f 270 121 118 173
f 84 124 271 81
f 271 124 272 227
f 272 124 123 273
f 55 127 193 54
f 193 127 123 85
f 123 127 125 273
f 128 129 130 131
f 130 129 231 11
f 231 129 27 230
f 132 133 186 274
f 186 133 12 89
f 12 133 130 11
f 136 137 275 208
f 275 137 255 254
f 255 137 134 111
f 61 140 275 254
f 275 140 139 208
f 276 142 141 277
f 101 144 31 22
f 31 144 269 30
f 269 144 143 268
f 147 148 143 102
f 143 148 278 268
f 278 148 145 41
f 151 152 279 146
f 279 152 33 249
f 33 152 149 7
f 155 156 280 126
f 280 158 125 126
f 125 158 157 273
f 108 164 183 107
f 183 164 209 58
f 209 164 136 208
f 167 168 105 262
f 105 168 266 98
f 266 168 165 243
f 170 171 270 173
f 270 171 167 262
f 167 171 169 166
f 170 174 149 150
f 149 174 6 7
f 6 174 172 89
f 147 175 151 146
f 151 175 169 150
f 169 175 103 166
f 42 178 278 41
f 278 178 267 268
f 267 178 176 258
f 181 182 271 227
f 271 182 80 81
f 80 182 179 77
f 184 185 63 64
f 63 185 214 66
f 214 185 183 58
f 186 187 219 274
f 219 187 118 119
f 118 187 172 173
f 189 190 245 138
f 245 190 281 239
f 281 190 76 77
f 179 192 281 77
f 281 192 238 239
f 238 192 191 237
f 194 195 259 240
f 259 195 86 221
f 86 195 193 85
f 196 197 200 277
f 200 197 282 199
f 282 197 53 54
f 200 201 276 277
f 276 201 14 15
f 14 201 198 242
f 246 202 229 230
f 229 202 19 242
f 110 203 247 248
f 247 203 21 22
f 21 203 134 135
f 50 205 206 49
f 206 205 260 256
f 260 205 204 188
f 72 207 212 71
f 212 207 257 37
f 257 207 206 256
f 209 210 57 58
f 212 213 216 71
f 216 213 68 159
f 68 213 211 67
f 59 215 214 58
f 216 217 70 71
f 70 217 253 254
f 253 217 160 252
f 141 218 196 277
f 222 223 279 249
f 279 223 145 146
f 145 223 40 41
f 157 226 272 273
f 272 226 225 227
f 181 228 35 180
f 231 232 233 11
f 233 232 198 199
f 198 232 229 242
f 10 234 194 240
f 194 234 282 54
f 282 234 233 199
f 16 286 285 15
f 26 288 287 25
f 63 290 291 64
f 92 295 294 52
f 95 296 284 5
f 120 298 297 119
f 52 294 299 122
f 128 300 288 26
f 132 302 301 131
f 138 303 295 92
f 142 305 304 141
f 153 306 307 156
f 158 309 308 157
f 218 310 306 153
f 119 297 311 219
f 64 291 312 220
f 224 313 286 16
f 226 315 314 225
f 225 314 316 228
f 237 317 318 238
f 238 318 319 239
f 18 320 313 224
f 239 319 321 245
f 245 321 303 138
f 317 237 35 289
f 122 299 322 250
f 66 293 290 63
f 250 322 296 95
f 220 312 324 261
f 265 326 325 264
f 261 324 326 265
f 264 325 298 120
f 131 301 300 128
f 274 327 302 132
f 15 285 328 276
f 276 328 305 142
f 156 307 329 280
f 280 329 309 158
f 219 311 327 274
f 141 304 310 218
f 157 308 315 226
f 228 316 289 35
f 335 336 337 338
f 339 340 341 342
f 343 344 345 346
f 350 351 352 353
f 354 355 356 357
f 358 359 360 361
f 337 336 362 363
f 365 366 367 368
f 369 370 371 372
f 373 374 375 376
f 377 378 379 380
f 382 383 384 385
f 386 387 388 389
f 399 400 401 402
f 365 381 403 404
f 405 406 407 408
f 409 410 411 412
f 413 414 415 416
f 417 418 419 420
f 403 381 421 422
f 423 334 424 425
f 426 427 428 429
f 430 431 432 433
f 428 427 434 435
f 426 436 437 438
f 439 440 441 442
f 443 444 445 446
f 447 448 449 450
f 452 414 413 453
f 454 455 384 456
f 356 355 457 458
f 459 460 461 462
f 463 464 465 466
f 472 431 430 473
f 474 475 476 477
f 478 479 480 481
f 482 483 484 485
f 465 464 437 493
f 494 495 496 497
f 498 479 499 500
f 501 502 499 503
f 432 431 476 504
f 505 506 371 507
f 508 509 510 511
f 512 436 513 514
f 501 418 515 516
f 405 517 518 519
f 520 509 508 521
f 522 383 523 524
f 382 483 525 526
f 527 528 529 530
f 463 440 439 532
f 533 444 379 534
f 535 378 401 536
f 468 537 538 539
f 540 366 541 542
f 543 395 394 544
f 489 488 545 546
f 525 483 482 547
f 369 550 551 552
f 554 556 510 557
f 558 559 560 561
f 562 340 339 563
f 337 374 419 338
f 419 418 335 338
f 341 418 417 342
f 417 569 339 342
f 345 553 570 346
f 570 571 343 346
f 348 571 570 349
f 570 553 347 349
f 352 572 573 353
f 573 464 350 353
f 356 559 575 357
f 360 351 576 361
f 576 577 358 361
f 362 578 375 363
f 375 374 337 363
f 364 509 520 566
f 367 579 451 368
f 451 381 365 368
f 371 506 580 372
f 580 550 369 372
f 375 578 551 376
f 551 550 373 376
f 379 444 443 380
f 443 359 377 380
f 384 455 484 385
f 484 483 382 385
f 582 583 390
f 401 378 441 402
f 441 440 584 402
f 584 583 399 402
f 403 585 586 404
f 586 366 365 404
f 407 587 445 408
f 445 444 533 408
f 533 517 405 408
f 411 506 505 412
f 505 587 407 412
f 407 406 409 412
f 415 550 580 416
f 580 506 411 416
f 411 410 413 416
f 419 374 373 420
f 373 550 588 420
f 588 569 417 420
f 421 467 518 422
f 518 517 589 422
f 589 585 403 422
f 424 579 367 425
f 367 366 540 425
f 540 396 423 425
f 428 590 549 429
f 549 393 513 429
f 513 436 426 429
f 432 495 494 433
f 494 572 352 433
f 352 351 430 433
f 434 591 592 435
f 592 593 594 435
f 594 590 428 435
f 437 464 573 438
f 573 572 595 438
f 595 427 426 438
f 441 378 377 442
f 377 359 358 442
f 358 577 439 442
f 445 587 596 446
f 596 597 598 446
f 598 359 443 446
f 449 593 592 450
f 592 591 599 450
f 599 502 447 450
f 413 410 600 453
f 600 556 601 453
f 601 602 452 453
f 384 383 522 456
f 522 414 452 456
f 452 602 454 456
f 457 460 459 458
f 459 340 560 458
f 560 559 356 458
f 461 603 515 462
f 515 418 341 462
f 341 340 459 462
f 465 537 604 466
f 604 583 584 466
f 584 440 463 466
f 390 583 604 469
f 604 537 468 469
f 605 606 470 471
f 430 351 360 473
f 360 359 598 473
f 598 597 472 473
f 476 431 472 477
f 472 597 607 477
f 607 370 474 477
f 480 475 608 481
f 608 578 362 481
f 362 336 478 481
f 484 455 609 485
f 609 455 454 487
f 454 602 486 487
f 437 436 512 493
f 512 387 538 493
f 538 537 465 493
f 496 591 434 497
f 434 427 595 497
f 595 572 494 497
f 499 502 599 500
f 599 591 496 500
f 496 495 498 500
f 499 479 478 503
f 478 336 335 503
f 335 418 501 503
f 476 475 480 504
f 480 479 498 504
f 498 495 432 504
f 371 370 607 507
f 607 597 596 507
f 596 587 505 507
f 510 556 600 511
f 600 410 409 511
f 409 406 508 511
f 513 393 392 514
f 392 395 543 514
f 543 387 512 514
f 515 603 548 516
f 548 448 447 516
f 447 502 501 516
f 518 467 574 519
f 574 568 610 519
f 610 406 405 519
f 508 406 610 521
f 610 568 567 521
f 567 566 520 521
f 523 569 588 524
f 588 550 415 524
f 415 414 522 524
f 525 606 529 526
f 529 528 611 526
f 611 383 382 526
f 529 606 605 530
f 605 344 343 530
f 343 571 527 530
f 575 559 558 531
f 558 571 348 531
f 439 577 576 532
f 576 351 350 532
f 350 464 463 532
f 379 378 535 534
f 535 585 589 534
f 589 517 533 534
f 401 400 541 536
f 541 366 586 536
f 586 585 535 536
f 538 387 386 539
f 541 400 545 542
f 545 488 397 542
f 397 396 540 542
f 388 387 543 544
f 545 400 399 546
f 399 583 582 546
f 582 581 489 546
f 470 606 525 547
f 551 578 608 552
f 608 475 474 552
f 474 370 369 552
f 486 602 601 555
f 601 556 554 555
f 510 509 364 557
f 560 340 562 561
f 562 528 527 561
f 527 571 558 561
f 339 569 523 563
f 523 383 611 563
f 611 528 562 563
f 345 344 285 286
f 355 354 287 288
f 317 289 364 566
f 392 393 291 290
f 421 381 294 295
f 424 334 284 296
f 449 448 297 298
f 381 451 299 294
f 457 355 288 300
f 461 460 301 302
f 467 421 295 303
f 471 470 304 305
f 482 485 307 306
f 487 486 308 309
f 547 482 306 310
f 448 548 311 297
f 393 549 312 291
f 553 345 286 313
f 555 554 314 315
f 554 557 316 314
f 566 567 318 317
f 567 568 319 318
f 347 553 313 320
f 568 574 321 319
f 574 467 303 321
f 451 579 322 299
f 395 392 290 293
f 579 424 296 322
f 549 590 324 312
f 594 593 325 326
f 590 594 326 324
f 593 449 298 325
f 460 457 300 301
f 603 461 302 327
f 344 605 328 285
f 605 471 305 328
f 485 609 329 307
f 609 487 309 329
f 548 603 327 311
f 470 547 310 304
f 486 555 315 308
f 557 364 289 316
f 61 253 252 2
f 139 140 61 2
f 66 214 215 65
f 236 59 60 3
f 2 3 60 57
f 159 68 162 235
f 68 67 161 162
f 69 161 67 94
f 252 160 1 2
f 160 159 235 1
f 57 210 139 2
f 236 163 215 59
f 66 65 292 293
f 292 394 395 293
f 5 4 69 94
f 62 65 215 163
f 5 284 283 4
f 65 62 323 292
f 398 333 334 423
f 390 331 581 582
f 331 390 469 468
f 389 388 565 332
f 389 332 331 386
f 491 397 488 564
f 397 491 490 396
f 398 423 396 490
f 330 489 581 331
f 489 330 564 488
f 468 539 386 331
f 544 394 391 492
f 544 492 565 388
f 334 333 283 284
f 323 391 394 292
f 612 235 162 161 613
f 69 4 613 161
f 614 2 1 235 612
f 615 62 163 236
f 333 616 613 4 283
f 616 617 612 613
f 617 618 614 612
f 618 619 615 614
f 619 391 323 62 615
f 614 615 236 3 2
f 616 333 398 490
f 617 616 490 491 564
f 618 617 564 330 331
f 619 618 331 332 565
f 391 619 565 492
f 629 621 620 630
f 631 624 623 632
f 632 623 625 633
f 634 627 626 635
f 635 626 628 636
f 637 629 630 638
f 639 632 633 640
f 642 643 629 637
f 644 638 645 646
f 646 645 639 647
f 648 649 650 651
f 652 653 644 654
f 654 644 646 655
f 656 647 657 658
f 659 660 653 652
f 661 652 654 662
f 663 656 658 664
f 665 666 659 667
f 668 662 669 670
f 671 663 664 672
f 673 674 675 676
f 677 665 667 678
f 678 667 661 679
f 668 670 671 680
f 671 672 680
f 676 677 678 680
f 668 680 678 679
f 630 620 624 631
f 636 628 622 643
f 643 622 621 629
f 638 630 631 645
f 645 631 632 639
f 641 634 635 649
f 649 635 636 650
f 650 636 643 642
f 653 637 638 644
f 647 639 640 657
f 681 641 649 648
f 651 650 642 660
f 660 642 637 653
f 655 646 647 656
f 682 681 648 683
f 683 648 651 666
f 666 651 660 659
f 662 654 655 669
f 669 655 656 663
f 674 682 683 675
f 675 683 666 665
f 667 659 652 661
f 679 661 662 668
f 670 669 663 671
f 676 675 665 677
f 680 673 676
f 691 692 684 685
f 693 694 687 688
f 694 633 625 687
f 634 695 689 627
f 695 696 690 689
f 697 698 692 691
f 699 640 633 694
f 700 697 691 701
f 702 704 703 698
f 704 705 699 703
f 706 709 708 707
f 710 712 702 711
f 712 713 704 702
f 714 658 657 705
f 715 710 711 716
f 717 718 712 710
f 719 664 658 714
f 720 722 715 721
f 723 725 724 718
f 726 672 664 719
f 673 728 727 674
f 729 730 722 720
f 730 731 717 722
f 723 680 726 725
f 726 680 672
f 728 680 730 729
f 723 731 730 680
f 692 693 688 684
f 696 701 686 690
f 701 691 685 686
f 698 703 693 692
f 703 699 694 693
f 641 707 695 634
f 707 708 696 695
f 708 700 701 696
f 711 702 698 697
f 705 657 640 699
f 681 706 707 641
f 709 716 700 708
f 716 711 697 700
f 713 714 705 704
f 682 732 706 681
f 732 721 709 706
f 721 715 716 709
f 718 724 713 712
f 724 719 714 713
f 674 727 732 682
f 727 720 721 732
f 722 717 710 715
f 731 723 718 717
f 725 726 719 724
f 728 729 720 727
f 680 728 673
f 689 690 686 740 742
f 684 739 740 686 685
f 684 688 687 741 739
f 687 625 736 741
f 623 735 736 625
f 620 734 735 623 624
f 620 621 622 733 734
f 626 738 733 622 628
f 627 737 738 626
f 627 689 742 737
